<svg xmlns="http://www.w3.org/2000/svg" viewBox="0 0 226.88 190.58"><defs><style>.cls-1{fill:#fff;}</style></defs><title>Recurso 1kodak</title><g id="Capa_2" data-name="Capa 2"><g id="Capa_1-2" data-name="Capa 1"><polygon class="cls-1" points="80.36 72.74 11.76 72.74 11.76 67.67 0 79.43 11.76 79.43 11.76 75.74 81.6 75.74 150.16 7.18 215.12 7.18 215.12 4.18 148.92 4.18 80.36 72.74"/><polygon class="cls-1" points="91.11 88.02 11.76 88.02 11.76 83.64 0 95.4 11.76 95.4 11.76 91.02 92.35 91.02 160.79 22.58 215.12 22.58 215.12 19.58 159.55 19.58 91.11 88.02"/><polygon class="cls-1" points="90.61 103.29 30.23 103.29 30.23 98.92 18.47 110.67 30.23 110.67 30.23 106.29 91.85 106.29 160.41 37.73 215.12 37.73 215.12 34.73 159.17 34.73 90.61 103.29"/><polygon class="cls-1" points="88.36 122.61 30.23 122.61 30.23 118.24 18.47 129.99 30.23 129.99 30.23 125.61 89.6 125.61 162.31 52.9 215.12 52.9 215.12 49.9 161.07 49.9 88.36 122.61"/><rect class="cls-1" x="60.6" y="172.91" width="8.96" height="8.96"/><polygon class="cls-1" points="11.76 53.09 0 64.85 11.76 64.85 11.76 53.09"/><polygon class="cls-1" points="11.76 98.92 0 110.67 11.76 110.67 11.76 98.92"/><polygon class="cls-1" points="11.76 129.46 0 141.22 11.76 141.22 11.76 129.46"/><polygon class="cls-1" points="11.76 160.01 0 171.77 11.76 171.77 11.76 160.01"/><polygon class="cls-1" points="11.76 152.12 109.44 152.12 109.44 157.52 121.2 145.76 109.44 145.76 109.44 149.12 11.76 149.12 11.76 144.74 0 156.5 11.76 156.5 11.76 152.12"/><polygon class="cls-1" points="165.47 155.37 165.36 155.27 133.05 187.58 37.01 187.58 29.1 179.67 11.76 179.67 11.76 175.29 0 187.04 11.76 187.04 11.76 182.67 27.86 182.67 35.77 190.58 134.29 190.58 165.47 159.4 165.47 163.4 177.23 151.64 165.47 151.64 165.47 155.37"/><polygon class="cls-1" points="197.35 163.4 197.35 151.64 185.6 163.4 197.35 163.4"/><polygon class="cls-1" points="185.6 120.72 107.02 120.72 89.86 137.89 30.23 137.89 30.23 132.81 18.47 144.57 30.23 144.57 30.23 140.89 91.1 140.89 108.26 123.72 185.6 123.72 185.6 128.1 197.35 116.34 185.6 116.34 185.6 120.72"/><polygon class="cls-1" points="215.12 57.28 226.88 45.52 215.12 45.52 215.12 57.28"/><polygon class="cls-1" points="215.12 42.1 226.88 30.35 215.12 30.35 215.12 42.1"/><polygon class="cls-1" points="215.12 26.93 226.88 15.17 215.12 15.17 215.12 26.93"/><polygon class="cls-1" points="215.12 0 215.12 11.76 226.88 0 215.12 0"/><polygon class="cls-1" points="175.51 187.04 175.51 175.29 163.75 187.04 175.51 187.04"/><polygon class="cls-1" points="11.76 114.19 0 125.95 11.76 125.95 11.76 114.19"/><polygon class="cls-1" points="141.67 161.15 129.91 161.15 129.91 165.53 30.23 165.53 30.23 161.15 18.47 172.9 30.23 172.9 30.23 168.53 129.91 168.53 129.91 172.9 141.67 161.15"/></g></g></svg>