<svg xmlns="http://www.w3.org/2000/svg" viewBox="0 0 520.57 161.13"><title>Recurso 4logo completo</title><g id="Capa_2" data-name="Capa 2"><g id="Capa_1-2" data-name="Capa 1"><path d="M29.21,131.73q-13.55,0-21.38-7.63T0,102.26V95.15H10.92v7.11q0,8.55,4.54,13.95t13.62,5.39q9.21,0,13-5.33t3.82-14V47.78H29.74v-10H67v10H57v54.47q0,14.34-7.11,21.91T29.21,131.73Z"/><path d="M91.82,131.73a30.75,30.75,0,0,1-12.24-2.37,20,20,0,0,1-8.68-6.84,18.45,18.45,0,0,1-3.16-10.92,17.79,17.79,0,0,1,3.16-10.86,19.23,19.23,0,0,1,8.68-6.45A33.58,33.58,0,0,1,92,92.12h21.71V87.39q0-6.84-4-10.79T97.74,72.65q-7.76,0-12.11,3.75a19,19,0,0,0-5.92,10.07L70,83.31a29.23,29.23,0,0,1,5-9.8,24.58,24.58,0,0,1,9.14-7.11,32.05,32.05,0,0,1,13.75-2.7q12.37,0,19.21,6.38t6.84,18v29.08q0,3.95,3.68,3.95h5.92v8.82h-9.08a9.86,9.86,0,0,1-7-2.43,8.44,8.44,0,0,1-2.63-6.51v-.66h-1.58a31.34,31.34,0,0,1-3.88,5.2,18.44,18.44,0,0,1-6.64,4.47A28.42,28.42,0,0,1,91.82,131.73ZM93,122.78q9.21,0,14.93-5.46T113.66,102v-1.45H92.35a17.92,17.92,0,0,0-10.2,2.7,9.1,9.1,0,0,0-4,8.09,9.84,9.84,0,0,0,4.15,8.42Q86.42,122.78,93,122.78Z"/><path d="M154.12,129.89l-23-64.34h11.05l19.34,56.58h1.84l19.34-56.58h11.05l-23,64.34Z"/><path d="M207,55.55a7.88,7.88,0,0,1-5.72-2.24,7.55,7.55,0,0,1-2.3-5.66,7.71,7.71,0,0,1,2.3-5.79A7.89,7.89,0,0,1,207,39.62a7.68,7.68,0,0,1,5.66,2.24,7.84,7.84,0,0,1,2.24,5.79,7.65,7.65,0,0,1-7.89,7.9Zm-5.26,74.34V65.55h10.39v64.34Z"/><path d="M271.77,131.73a8.79,8.79,0,0,1-6.38-2.5,9.38,9.38,0,0,1,0-12.89,9.1,9.1,0,1,1,6.38,15.39Z"/><path d="M320.72,131.73a34.29,34.29,0,0,1-17.11-4.14,28.94,28.94,0,0,1-11.45-11.64,35.78,35.78,0,0,1-4.08-17.37V97a36.06,36.06,0,0,1,4.08-17.5,29.2,29.2,0,0,1,11.32-11.64,35.18,35.18,0,0,1,32.63-.26A27.5,27.5,0,0,1,347,78.7a34.91,34.91,0,0,1,3.95,17v4.74h-52.5q.4,10.4,6.71,16.25A22.33,22.33,0,0,0,321,122.52q8.29,0,12.76-3.82a25.64,25.64,0,0,0,6.84-9.08l8.95,4.34a38.43,38.43,0,0,1-5.46,8.16A28.12,28.12,0,0,1,335,129Q329.4,131.73,320.72,131.73ZM298.61,91.86h41.84q-.53-8.95-6.12-13.95t-14.28-5q-8.82,0-14.47,5T298.61,91.86Z"/><path d="M352.3,129.89l25.79-32.63-25-31.71h12.5L384.8,90.41h1.84l19.08-24.87h12.63L393.22,97.26,419,129.89H406.38l-19.74-25.66H384.8l-19.74,25.66Z"/><path d="M453.48,131.73a34.29,34.29,0,0,1-17.11-4.14,28.94,28.94,0,0,1-11.45-11.64,35.78,35.78,0,0,1-4.08-17.37V97a36.06,36.06,0,0,1,4.08-17.5,29.2,29.2,0,0,1,11.32-11.64,35.18,35.18,0,0,1,32.63-.26A27.5,27.5,0,0,1,479.8,78.7a34.91,34.91,0,0,1,3.95,17v4.74h-52.5q.4,10.4,6.71,16.25a22.33,22.33,0,0,0,15.79,5.86q8.29,0,12.76-3.82a25.64,25.64,0,0,0,6.84-9.08L482.3,114a38.43,38.43,0,0,1-5.46,8.16,28.12,28.12,0,0,1-9.08,6.84Q462.17,131.73,453.48,131.73ZM431.38,91.86h41.84q-.53-8.95-6.12-13.95t-14.28-5q-8.82,0-14.47,5T431.38,91.86Z"/><path d="M507.07,0H273.58L232.87,40.71V147.63a13.52,13.52,0,0,0,13.5,13.5H507.07a13.52,13.52,0,0,0,13.5-13.5V13.5A13.52,13.52,0,0,0,507.07,0ZM270.65,16.22V34.28a3.5,3.5,0,0,1-3.5,3.5H249.09ZM510.57,147.63a3.5,3.5,0,0,1-3.5,3.5H246.37a3.5,3.5,0,0,1-3.5-3.5V47.78h24.28a13.52,13.52,0,0,0,13.5-13.5V10H507.07a3.5,3.5,0,0,1,3.5,3.5Z"/></g></g></svg>