<svg width="13" height="16" viewBox="0 0 13 16" fill="none" xmlns="http://www.w3.org/2000/svg">
<path d="M11.2258 0H4.16112L0 4.04221V14.6592C0 15.3942 0.623658 16 1.38023 16H11.2258C11.9824 16 12.6061 15.3942 12.6061 14.6592V1.34078C12.6061 0.605835 11.9926 0 11.2258 0ZM3.86463 1.60894V3.40658C3.86463 3.59528 3.70105 3.75419 3.5068 3.75419H1.65627L3.86463 1.60894ZM11.5837 14.6592C11.5837 14.8479 11.4201 15.0068 11.2258 15.0068H1.38023C1.18597 15.0068 1.02239 14.8479 1.02239 14.6592V4.74736H3.5068C4.26336 4.74736 4.88702 4.14153 4.88702 3.40658V0.993172H11.2361C11.4303 0.993172 11.5939 1.15208 11.5939 1.34078V14.6592H11.5837Z" fill="#0217D0"/>
<path d="M6.13437 4.74708H7.79064V10.1599C7.79064 10.7359 7.65773 11.2027 7.40213 11.5503C7.14653 11.9078 6.69668 12.0767 6.07302 12.0767C5.44937 12.0767 4.98929 11.8979 4.68257 11.5404C4.37586 11.1828 4.2225 10.726 4.2225 10.1599V9.45471H3.08765V10.1599C3.08765 11.1034 3.35347 11.8284 3.88511 12.325C4.41675 12.8315 5.14265 13.0798 6.07302 13.0798C6.99317 13.0798 7.69862 12.8315 8.18937 12.325C8.66989 11.8284 8.91527 11.1034 8.91527 10.1499V4.74708H9.93766V3.75391H6.13437V4.74708Z" fill="#0217D0"/>
</svg>
