<svg width="576" height="710" viewBox="0 0 576 710" fill="none" xmlns="http://www.w3.org/2000/svg">
<path d="M16.9109 196.527L174.958 226.731C191.868 178.83 231.813 140.642 298.387 140.642C356.973 140.642 402.243 169.915 402.243 233.783V242.299C402.243 279.023 339.53 281.551 339.53 281.551L277.616 287.938C107.585 304.304 4.66117 369.104 4.66117 501.763C4.39487 632.027 105.188 705.609 230.348 705.609C365.228 705.609 403.042 621.383 403.042 621.383H408.768V691.904H571.608C571.608 691.904 571.608 350.609 571.608 236.844C571.608 62.5372 438.46 4.39062 304.912 4.39062C162.842 4.39062 50.5975 71.4521 16.9109 196.527Z" stroke="#0212A2" stroke-miterlimit="10"/>
<path d="M401.579 374.56C388.531 389.196 324.486 398.91 292.531 402.502C211.31 411.55 168.436 438.694 168.436 499.901C168.436 548.467 207.981 577.74 266.034 577.74C344.192 577.74 401.579 525.848 401.579 464.641V374.56Z" stroke="#0212A2" stroke-miterlimit="10"/>
<path d="M165.772 4.39111H435.132" stroke="#010D73" stroke-miterlimit="10"/>
<path d="M17.709 196.528L50.3304 73.8479" stroke="#010D73" stroke-miterlimit="10"/>
<path d="M174.827 226.599L189.739 180.96" stroke="#010D73" stroke-miterlimit="10"/>
<path d="M235.008 141.043H354.176" stroke="#010D73" stroke-miterlimit="10"/>
<path d="M402.244 173.642L402.111 229.793" stroke="#010D73" stroke-miterlimit="10"/>
<path d="M402.244 247.489V276.096" stroke="#010D73" stroke-miterlimit="10"/>
<path d="M110.782 303.773L336.469 282.483" stroke="#010D73" stroke-miterlimit="10"/>
<path d="M4.39551 371.233V628.702" stroke="#010D73" stroke-miterlimit="10"/>
<path d="M108.119 705.609H325.152" stroke="#010D73" stroke-miterlimit="10"/>
<path d="M168.433 441.754V545.274" stroke="#010D73" stroke-miterlimit="10"/>
<path d="M210.243 577.74H341.394" stroke="#010D73" stroke-miterlimit="10"/>
<path d="M213.973 410.885L321.424 398.91" stroke="#010D73" stroke-miterlimit="10"/>
<path d="M389.994 387.201L401.711 374.561" stroke="#010D73" stroke-miterlimit="10"/>
<path d="M401.711 464.641V523.319" stroke="#010D73" stroke-miterlimit="10"/>
<path d="M403.041 621.384L383.735 657.975" stroke="#010D73" stroke-miterlimit="10"/>
<path d="M571.607 237.244V65.7314" stroke="#010D73" stroke-miterlimit="10"/>
<path d="M305.977 8.78186C308.404 8.78186 310.371 6.81597 310.371 4.39093C310.371 1.96589 308.404 0 305.977 0C303.551 0 301.583 1.96589 301.583 4.39093C301.583 6.81597 303.551 8.78186 305.977 8.78186Z" fill="#8BFCBD"/>
<path d="M17.7074 200.917C20.1341 200.917 22.1013 198.951 22.1013 196.526C22.1013 194.101 20.1341 192.135 17.7074 192.135C15.2807 192.135 13.3135 194.101 13.3135 196.526C13.3135 198.951 15.2807 200.917 17.7074 200.917Z" fill="#8BFCBD"/>
<path d="M298.251 145.433C300.678 145.433 302.645 143.468 302.645 141.043C302.645 138.617 300.678 136.652 298.251 136.652C295.825 136.652 293.857 138.617 293.857 141.043C293.857 143.468 295.825 145.433 298.251 145.433Z" fill="#8BFCBD"/>
<path d="M175.086 230.99C177.513 230.99 179.48 229.024 179.48 226.599C179.48 224.174 177.513 222.208 175.086 222.208C172.66 222.208 170.692 224.174 170.692 226.599C170.692 229.024 172.66 230.99 175.086 230.99Z" fill="#8BFCBD"/>
<path d="M402.242 237.243C404.669 237.243 406.636 235.277 406.636 232.852C406.636 230.427 404.669 228.461 402.242 228.461C399.815 228.461 397.848 230.427 397.848 232.852C397.848 235.277 399.815 237.243 402.242 237.243Z" fill="#8BFCBD"/>
<path d="M402.242 247.488C404.669 247.488 406.636 245.523 406.636 243.097C406.636 240.672 404.669 238.707 402.242 238.707C399.815 238.707 397.848 240.672 397.848 243.097C397.848 245.523 399.815 247.488 402.242 247.488Z" fill="#8BFCBD"/>
<path d="M277.616 292.728C280.043 292.728 282.01 290.763 282.01 288.337C282.01 285.912 280.043 283.947 277.616 283.947C275.189 283.947 273.222 285.912 273.222 288.337C273.222 290.763 275.189 292.728 277.616 292.728Z" fill="#8BFCBD"/>
<path d="M292.527 407.159C294.954 407.159 296.921 405.193 296.921 402.768C296.921 400.343 294.954 398.377 292.527 398.377C290.101 398.377 288.133 400.343 288.133 402.768C288.133 405.193 290.101 407.159 292.527 407.159Z" fill="#8BFCBD"/>
<path d="M168.432 503.094C170.858 503.094 172.825 501.128 172.825 498.703C172.825 496.278 170.858 494.312 168.432 494.312C166.005 494.312 164.038 496.278 164.038 498.703C164.038 501.128 166.005 503.094 168.432 503.094Z" fill="#8BFCBD"/>
<path d="M4.39391 505.09C6.8206 505.09 8.78782 503.124 8.78782 500.699C8.78782 498.274 6.8206 496.308 4.39391 496.308C1.96722 496.308 0 498.274 0 500.699C0 503.124 1.96722 505.09 4.39391 505.09Z" fill="#8BFCBD"/>
<path d="M266.164 582.131C268.591 582.131 270.558 580.165 270.558 577.74C270.558 575.315 268.591 573.349 266.164 573.349C263.737 573.349 261.77 575.315 261.77 577.74C261.77 580.165 263.737 582.131 266.164 582.131Z" fill="#8BFCBD"/>
<path d="M408.903 626.174C411.33 626.174 413.297 624.208 413.297 621.783C413.297 619.358 411.33 617.392 408.903 617.392C406.477 617.392 404.509 619.358 404.509 621.783C404.509 624.208 406.477 626.174 408.903 626.174Z" fill="#8BFCBD"/>
<path d="M408.903 696.427C411.33 696.427 413.297 694.461 413.297 692.036C413.297 689.611 411.33 687.646 408.903 687.646C406.477 687.646 404.509 689.611 404.509 692.036C404.509 694.461 406.477 696.427 408.903 696.427Z" fill="#8BFCBD"/>
<path d="M571.606 696.427C574.033 696.427 576 694.461 576 692.036C576 689.611 574.033 687.646 571.606 687.646C569.179 687.646 567.212 689.611 567.212 692.036C567.212 694.461 569.179 696.427 571.606 696.427Z" fill="#8BFCBD"/>
<path d="M571.606 241.634C574.033 241.634 576 239.669 576 237.243C576 234.818 574.033 232.853 571.606 232.853C569.179 232.853 567.212 234.818 567.212 237.243C567.212 239.669 569.179 241.634 571.606 241.634Z" fill="#8BFCBD"/>
<path d="M402.773 626.174C405.2 626.174 407.167 624.208 407.167 621.783C407.167 619.358 405.2 617.392 402.773 617.392C400.346 617.392 398.379 619.358 398.379 621.783C398.379 624.208 400.346 626.174 402.773 626.174Z" fill="#8BFCBD"/>
<path d="M401.709 469.298C404.136 469.298 406.103 467.332 406.103 464.907C406.103 462.482 404.136 460.516 401.709 460.516C399.283 460.516 397.315 462.482 397.315 464.907C397.315 467.332 399.283 469.298 401.709 469.298Z" fill="#8BFCBD"/>
<path d="M401.709 378.951C404.136 378.951 406.103 376.985 406.103 374.56C406.103 372.135 404.136 370.169 401.709 370.169C399.283 370.169 397.315 372.135 397.315 374.56C397.315 376.985 399.283 378.951 401.709 378.951Z" fill="#8BFCBD"/>
<path d="M230.48 710C232.907 710 234.874 708.034 234.874 705.609C234.874 703.184 232.907 701.218 230.48 701.218C228.054 701.218 226.086 703.184 226.086 705.609C226.086 708.034 228.054 710 230.48 710Z" fill="#8BFCBD"/>
<path d="M340.062 285.41C342.047 285.41 343.657 283.802 343.657 281.818C343.657 279.834 342.047 278.225 340.062 278.225C338.076 278.225 336.467 279.834 336.467 281.818C336.467 283.802 338.076 285.41 340.062 285.41Z" stroke="#8C97FE" stroke-miterlimit="10"/>
<path d="M107.449 307.764C109.434 307.764 111.044 306.156 111.044 304.172C111.044 302.188 109.434 300.579 107.449 300.579C105.464 300.579 103.854 302.188 103.854 304.172C103.854 306.156 105.464 307.764 107.449 307.764Z" stroke="#8C97FE" stroke-miterlimit="10"/>
<path d="M190.668 181.625C192.653 181.625 194.263 180.016 194.263 178.032C194.263 176.048 192.653 174.44 190.668 174.44C188.682 174.44 187.073 176.048 187.073 178.032C187.073 180.016 188.682 181.625 190.668 181.625Z" stroke="#8C97FE" stroke-miterlimit="10"/>
<path d="M231.41 144.635C233.395 144.635 235.005 143.027 235.005 141.043C235.005 139.058 233.395 137.45 231.41 137.45C229.424 137.45 227.815 139.058 227.815 141.043C227.815 143.027 229.424 144.635 231.41 144.635Z" stroke="#8C97FE" stroke-miterlimit="10"/>
<path d="M357.771 144.635C359.756 144.635 361.366 143.027 361.366 141.043C361.366 139.058 359.756 137.45 357.771 137.45C355.785 137.45 354.176 139.058 354.176 141.043C354.176 143.027 355.785 144.635 357.771 144.635Z" stroke="#8C97FE" stroke-miterlimit="10"/>
<path d="M402.241 173.908C404.226 173.908 405.836 172.3 405.836 170.315C405.836 168.331 404.226 166.723 402.241 166.723C400.256 166.723 398.646 168.331 398.646 170.315C398.646 172.3 400.256 173.908 402.241 173.908Z" stroke="#8C97FE" stroke-miterlimit="10"/>
<path d="M402.241 283.148C404.226 283.148 405.836 281.539 405.836 279.555C405.836 277.571 404.226 275.963 402.241 275.963C400.256 275.963 398.646 277.571 398.646 279.555C398.646 281.539 400.256 283.148 402.241 283.148Z" stroke="#8C97FE" stroke-miterlimit="10"/>
<path d="M4.39287 371.234C6.37834 371.234 7.98788 369.625 7.98788 367.641C7.98788 365.657 6.37834 364.049 4.39287 364.049C2.40739 364.049 0.797852 365.657 0.797852 367.641C0.797852 369.625 2.40739 371.234 4.39287 371.234Z" stroke="#8C97FE" stroke-miterlimit="10"/>
<path d="M4.39287 635.621C6.37834 635.621 7.98788 634.013 7.98788 632.028C7.98788 630.044 6.37834 628.436 4.39287 628.436C2.40739 628.436 0.797852 630.044 0.797852 632.028C0.797852 634.013 2.40739 635.621 4.39287 635.621Z" stroke="#8C97FE" stroke-miterlimit="10"/>
<path d="M104.519 709.202C106.504 709.202 108.114 707.593 108.114 705.609C108.114 703.625 106.504 702.017 104.519 702.017C102.533 702.017 100.924 703.625 100.924 705.609C100.924 707.593 102.533 709.202 104.519 709.202Z" stroke="#8C97FE" stroke-miterlimit="10"/>
<path d="M328.742 709.202C330.727 709.202 332.337 707.593 332.337 705.609C332.337 703.625 330.727 702.017 328.742 702.017C326.757 702.017 325.147 703.625 325.147 705.609C325.147 707.593 326.757 709.202 328.742 709.202Z" stroke="#8C97FE" stroke-miterlimit="10"/>
<path d="M382.269 664.228C384.254 664.228 385.864 662.62 385.864 660.636C385.864 658.651 384.254 657.043 382.269 657.043C380.283 657.043 378.674 658.651 378.674 660.636C378.674 662.62 380.283 664.228 382.269 664.228Z" stroke="#8C97FE" stroke-miterlimit="10"/>
<path d="M401.708 530.105C403.694 530.105 405.303 528.496 405.303 526.512C405.303 524.528 403.694 522.92 401.708 522.92C399.723 522.92 398.113 524.528 398.113 526.512C398.113 528.496 399.723 530.105 401.708 530.105Z" stroke="#8C97FE" stroke-miterlimit="10"/>
<path d="M387.597 393.455C389.583 393.455 391.192 391.846 391.192 389.862C391.192 387.878 389.583 386.27 387.597 386.27C385.612 386.27 384.002 387.878 384.002 389.862C384.002 391.846 385.612 393.455 387.597 393.455Z" stroke="#8C97FE" stroke-miterlimit="10"/>
<path d="M324.481 402.103C326.467 402.103 328.076 400.495 328.076 398.511C328.076 396.527 326.467 394.918 324.481 394.918C322.496 394.918 320.886 396.527 320.886 398.511C320.886 400.495 322.496 402.103 324.481 402.103Z" stroke="#8C97FE" stroke-miterlimit="10"/>
<path d="M210.51 414.744C212.495 414.744 214.105 413.135 214.105 411.151C214.105 409.167 212.495 407.558 210.51 407.558C208.524 407.558 206.915 409.167 206.915 411.151C206.915 413.135 208.524 414.744 210.51 414.744Z" stroke="#8C97FE" stroke-miterlimit="10"/>
<path d="M168.43 441.754C170.416 441.754 172.025 440.146 172.025 438.161C172.025 436.177 170.416 434.569 168.43 434.569C166.445 434.569 164.835 436.177 164.835 438.161C164.835 440.146 166.445 441.754 168.43 441.754Z" stroke="#8C97FE" stroke-miterlimit="10"/>
<path d="M168.43 552.326C170.416 552.326 172.025 550.717 172.025 548.733C172.025 546.749 170.416 545.14 168.43 545.14C166.445 545.14 164.835 546.749 164.835 548.733C164.835 550.717 166.445 552.326 168.43 552.326Z" stroke="#8C97FE" stroke-miterlimit="10"/>
<path d="M207.179 581.333C209.164 581.333 210.774 579.724 210.774 577.74C210.774 575.756 209.164 574.148 207.179 574.148C205.194 574.148 203.584 575.756 203.584 577.74C203.584 579.724 205.194 581.333 207.179 581.333Z" stroke="#8C97FE" stroke-miterlimit="10"/>
<path d="M344.188 581.333C346.173 581.333 347.783 579.724 347.783 577.74C347.783 575.756 346.173 574.148 344.188 574.148C342.202 574.148 340.593 575.756 340.593 577.74C340.593 579.724 342.202 581.333 344.188 581.333Z" stroke="#8C97FE" stroke-miterlimit="10"/>
<path d="M571.605 65.7306C573.59 65.7306 575.2 64.1221 575.2 62.138C575.2 60.1539 573.59 58.5454 571.605 58.5454C569.619 58.5454 568.01 60.1539 568.01 62.138C568.01 64.1221 569.619 65.7306 571.605 65.7306Z" stroke="#8C97FE" stroke-miterlimit="10"/>
<path d="M438.192 7.9835C440.177 7.9835 441.787 6.37505 441.787 4.39092C441.787 2.40679 440.177 0.79834 438.192 0.79834C436.206 0.79834 434.597 2.40679 434.597 4.39092C434.597 6.37505 436.206 7.9835 438.192 7.9835Z" stroke="#8C97FE" stroke-miterlimit="10"/>
<path d="M162.706 7.9835C164.692 7.9835 166.301 6.37505 166.301 4.39092C166.301 2.40679 164.692 0.79834 162.706 0.79834C160.721 0.79834 159.111 2.40679 159.111 4.39092C159.111 6.37505 160.721 7.9835 162.706 7.9835Z" stroke="#8C97FE" stroke-miterlimit="10"/>
<path d="M51.1263 74.3792C53.1117 74.3792 54.7213 72.7708 54.7213 70.7867C54.7213 68.8025 53.1117 67.1941 51.1263 67.1941C49.1408 67.1941 47.5312 68.8025 47.5312 70.7867C47.5312 72.7708 49.1408 74.3792 51.1263 74.3792Z" stroke="#8C97FE" stroke-miterlimit="10"/>
</svg>
