<svg width="862" height="504" viewBox="0 0 862 504" fill="none" xmlns="http://www.w3.org/2000/svg">
<path d="M842 306.9L836.5 301.7L841.7 307.1C845 312.6 848.2 318.2 851.7 323.6C854.7 328.1 857.2 333.1 861 337.1V335.5C857.8 331.7 855.4 327.3 852.6 323C849.2 317.6 845.5 312.3 842 306.9Z" fill="#01FA6F"/>
<path d="M852 349.9C849.4 349.4 846.7 349.2 844 349.2L836.1 348.9C830.8 348.7 825.5 348.5 820.2 348.4C814.9 348.4 809.6 348.3 804.3 348.6C809.6 348.7 814.9 349.1 820.2 349.5C825.5 349.8 830.8 349.9 836 350.1L843.9 350.4C846.5 350.5 849.2 350.6 851.7 351.1C854.3 351.5 856.8 352.3 858.9 353.7C859.6 354.2 860.3 354.8 860.8 355.4V353.9C860.4 353.5 859.9 353.2 859.5 352.8C857.3 351.2 854.6 350.4 852 349.9Z" fill="#01FA6F"/>
<path d="M828.9 364.9H829L832.2 370.3H833.8V362.3H832.2V367.6L828.9 362.3H827.4V370.3H828.9V364.9Z" fill="#01FA6F"/>
<path d="M836.9 368.6H840L840.6 370.3H842.2L839.3 362.3H837.7L834.8 370.3H836.5L836.9 368.6ZM838.4 364.2L839.5 367.3H837.3L838.4 364.2Z" fill="#01FA6F"/>
<path d="M846.2 370.3L849.2 362.3H847.5L845.5 368.3H845.4L843.3 362.3H841.6L844.6 370.3H846.2Z" fill="#01FA6F"/>
<path d="M834.1 396.2L836.3 392.7L834.4 391.7L832.5 395.3H832.3L830.3 391.7L828.5 392.7L830.6 396.2L830.5 396.4L826.4 396.3V398.4L830.5 398.3L830.6 398.5L828.5 402L830.3 403.1L832.3 399.5H832.5L834.4 403.1L836.3 402L834.1 398.5L834.2 398.3L838.3 398.4V396.3L834.2 396.4L834.1 396.2Z" fill="#01FA6F"/>
<path d="M823.4 374.5V358.6L816.9 362.4H813.5V370.3H816.9L823.4 374.5ZM817.6 363.3L822.3 360.6V372.5L817.6 369.5V363.3ZM816.5 369.3H814.6V363.6H816.5V369.3Z" fill="#01FA6F"/>
<path d="M854.6 380.5H812V381.6H854.6V380.5Z" fill="#01FA6F"/>
<path d="M257 346L218.5 348L199.2 349C192.8 349.2 186.4 349.9 180 350.3L174.5 352.4L180.1 350.6C186.5 350.4 193 350.4 199.4 350.1L218.7 349.1L257.2 347.1C263.6 346.7 270 346.4 276.5 345.8C279.7 345.5 282.9 345 286.1 344C289.2 343.1 292.2 341.3 294.6 339.2C299.6 334.8 302.5 328.9 306 323.6C309.5 318.2 312.6 312.6 316 307.1L321.2 301.7L315.7 306.9C312.2 312.3 308.5 317.5 305.1 323C301.6 328.4 298.7 334.2 293.9 338.4C291.5 340.5 288.8 342.1 285.7 343C282.7 344 279.5 344.4 276.3 344.7C269.9 345.4 263.4 345.7 257 346Z" fill="#01FA6F"/>
<path d="M226.3 331.2L213.9 336.9L226.9 339.4L226.3 331.2ZM217.4 336.4L225.2 332.8L225.6 337.9L217.4 336.4Z" fill="#01FA6F"/>
<path d="M268.3 336.3L280.8 332L267.7 328.2L268.3 336.3ZM277.1 332.1L269.2 334.8L268.8 329.7L277.1 332.1Z" fill="#01FA6F"/>
<path d="M275.6 377.8C277.1 374.4 278.6 371 280.2 367.7L282.7 362.7C283.5 361 284.3 359.2 284.2 357.1C284.2 356.1 283.8 355 283.1 354.2C282.4 353.4 281.5 352.9 280.5 352.6C278.6 352 276.7 351.9 274.8 352L263.6 352.6L218.9 354.9L196.6 356C189.2 356.4 181.7 357 174.3 357.6L169.2 359.2L174.3 357.8C181.7 357.6 189.2 357.5 196.6 357.1L218.9 356L263.5 353.7L274.7 353.1C276.5 353 278.4 353.1 280 353.7C281.7 354.2 282.9 355.5 282.9 357.2C282.9 360.7 280.5 363.9 279 367.3C277.4 370.7 275.8 374.1 274.4 377.5C271.4 384.3 268.6 391.3 265.8 398.2C264.4 401.6 263 405.1 261.7 408.6C260.4 412.1 259.1 415.5 258.1 419.3L257 427.2L258.5 419.3C260.8 412.3 264.1 405.6 266.8 398.6C269.9 391.5 272.7 384.6 275.6 377.8Z" fill="#01FA6F"/>
<path d="M305.5 349.9C302.9 350.4 300.2 351.1 297.9 352.7C296.8 353.5 295.8 354.5 294.9 355.6C294.1 356.7 293.4 357.9 292.8 359C290.1 363.6 287.9 368.4 285.7 373.3C283.5 378.1 281.3 382.9 279.2 387.8C277.1 392.7 275.1 397.6 273.2 402.5L270.4 409.9C269.5 412.4 268.7 414.9 268 417.5L266.3 426.9L268.6 417.6L271.5 410.2L274.3 402.8C276.2 397.9 278.2 393 280.3 388.1C282.4 383.3 284.6 378.4 286.8 373.6C289 368.8 291.2 364 293.9 359.4C295.2 357.1 296.5 354.9 298.7 353.5C300.8 352.1 303.3 351.3 305.9 350.9C308.5 350.4 311.1 350.3 313.7 350.2L321.6 349.9C326.9 349.7 332.2 349.6 337.4 349.3C342.7 349 348 348.5 353.3 348.4C348 348.2 342.7 348.2 337.4 348.2C332.1 348.3 326.8 348.5 321.5 348.7L313.6 349C310.8 349.3 308.2 349.4 305.5 349.9Z" fill="#01FA6F"/>
<path d="M194.4 401.9H229V367.3H194.4V401.9ZM195.5 368.4H228V400.8H195.5V368.4Z" fill="#01FA6F"/>
<path d="M201.7 372.3H198.3V374.3H201.7V372.3Z" fill="#01FA6F"/>
<path d="M206.4 372.3H203V374.3H206.4V372.3Z" fill="#01FA6F"/>
<path d="M211 372.3H207.6V374.3H211V372.3Z" fill="#01FA6F"/>
<path d="M215.6 372.3H212.2V374.3H215.6V372.3Z" fill="#01FA6F"/>
<path d="M220.2 372.3H216.8V374.3H220.2V372.3Z" fill="#01FA6F"/>
<path d="M224.8 372.3H221.4V374.3H224.8V372.3Z" fill="#01FA6F"/>
<path d="M201.7 376.7H198.3V378.7H201.7V376.7Z" fill="#01FA6F"/>
<path d="M206.4 376.7H203V378.7H206.4V376.7Z" fill="#01FA6F"/>
<path d="M211 376.7H207.6V378.7H211V376.7Z" fill="#01FA6F"/>
<path d="M215.6 376.7H212.2V378.7H215.6V376.7Z" fill="#01FA6F"/>
<path d="M220.2 376.7H216.8V378.7H220.2V376.7Z" fill="#01FA6F"/>
<path d="M224.8 376.7H221.4V378.7H224.8V376.7Z" fill="#01FA6F"/>
<path d="M201.7 381.2H198.3V383.2H201.7V381.2Z" fill="#01FA6F"/>
<path d="M206.4 381.2H203V383.2H206.4V381.2Z" fill="#01FA6F"/>
<path d="M211 381.2H207.6V383.2H211V381.2Z" fill="#01FA6F"/>
<path d="M215.6 381.2H212.2V383.2H215.6V381.2Z" fill="#01FA6F"/>
<path d="M220.2 381.2H216.8V383.2H220.2V381.2Z" fill="#01FA6F"/>
<path d="M224.8 381.2H221.4V383.2H224.8V381.2Z" fill="#01FA6F"/>
<path d="M201.7 385.6H198.3V387.6H201.7V385.6Z" fill="#01FA6F"/>
<path d="M206.4 385.6H203V387.6H206.4V385.6Z" fill="#01FA6F"/>
<path d="M211 385.6H207.6V387.6H211V385.6Z" fill="#01FA6F"/>
<path d="M215.6 385.6H212.2V387.6H215.6V385.6Z" fill="#01FA6F"/>
<path d="M220.2 385.6H216.8V387.6H220.2V385.6Z" fill="#01FA6F"/>
<path d="M224.8 385.6H221.4V387.6H224.8V385.6Z" fill="#01FA6F"/>
<path d="M201.7 390.1H198.3V392.1H201.7V390.1Z" fill="#01FA6F"/>
<path d="M206.4 390.1H203V392.1H206.4V390.1Z" fill="#01FA6F"/>
<path d="M211 390.1H207.6V392.1H211V390.1Z" fill="#01FA6F"/>
<path d="M215.6 390.1H212.2V392.1H215.6V390.1Z" fill="#01FA6F"/>
<path d="M220.2 390.1H216.8V392.1H220.2V390.1Z" fill="#01FA6F"/>
<path d="M224.8 390.1H221.4V392.1H224.8V390.1Z" fill="#01FA6F"/>
<path d="M201.7 394.5H198.3V396.5H201.7V394.5Z" fill="#01FA6F"/>
<path d="M206.4 394.5H203V396.5H206.4V394.5Z" fill="#01FA6F"/>
<path d="M211 394.5H207.6V396.5H211V394.5Z" fill="#01FA6F"/>
<path d="M215.6 394.5H212.2V396.5H215.6V394.5Z" fill="#01FA6F"/>
<path d="M220.2 394.5H216.8V396.5H220.2V394.5Z" fill="#01FA6F"/>
<path d="M224.8 394.5H221.4V396.5H224.8V394.5Z" fill="#01FA6F"/>
<path d="M177.8 362C179.8 363.1 181.9 363.9 184.1 364.7C186.3 365.4 188.4 366 190.7 366.3C188.7 365.2 186.6 364.4 184.4 363.6C182.3 363 180.1 362.3 177.8 362Z" fill="#01FA6F"/>
<path d="M275.7 356.7C270.9 357.8 266.1 359.1 261.4 360.6C256.7 362.1 252 363.6 247.4 365.5C252.2 364.4 257 363.1 261.7 361.6C266.4 360.2 271.1 358.6 275.7 356.7Z" fill="#01FA6F"/>
<path d="M244.4 399C246.2 400.5 248.1 401.7 250 402.9C252 404 254 405.1 256.2 405.8C254.4 404.3 252.5 403.1 250.6 401.9C248.6 400.8 246.6 399.8 244.4 399Z" fill="#01FA6F"/>
<path d="M164.4 407.3C161.8 408.1 159.2 408.9 156.7 409.7C159.4 409.3 162 408.7 164.6 408.1C167.2 407.5 169.8 406.8 172.4 406.1C177.6 404.7 182.8 403.2 187.9 401.3C182.6 402.3 177.4 403.6 172.1 405C169.6 405.8 167 406.5 164.4 407.3Z" fill="#01FA6F"/>
<path d="M238.6 385.4C239.1 385.1 239.5 384.6 239.9 384C240.2 383.4 240.4 382.7 240.4 381.8C240.4 380.9 240.2 380.2 239.9 379.6C239.6 379 239.2 378.5 238.6 378.2C238.1 377.9 237.5 377.7 236.8 377.7C236.1 377.7 235.5 377.9 235 378.2C234.5 378.5 234 379 233.7 379.6C233.4 380.2 233.2 381 233.2 381.8C233.2 382.7 233.4 383.4 233.7 384C234 384.6 234.4 385.1 235 385.4C235.5 385.7 236.1 385.9 236.8 385.9C237.4 385.9 238 385.8 238.6 385.4ZM235 383.4C234.8 383 234.7 382.5 234.7 381.9C234.7 381.3 234.8 380.8 235 380.4C235.2 380 235.4 379.7 235.7 379.5C236 379.3 236.3 379.2 236.7 379.2C237.3 379.2 237.7 379.4 238.1 379.9C238.5 380.3 238.7 381 238.7 382C238.7 382.9 238.5 383.6 238.1 384.1C237.7 384.5 237.3 384.7 236.7 384.7C236.3 384.7 236 384.6 235.7 384.4C235.5 384.1 235.2 383.8 235 383.4Z" fill="#01FA6F"/>
<path d="M248.1 385.8L244.9 381.5L248.3 377.8H246.2L243 381.4H242.9V377.8H241.4V385.8H242.9V383.7L243.9 382.6L246.2 385.8H248.1Z" fill="#01FA6F"/>
<path d="M313.2 364.2H311.6L309.5 370.2H309.4L307.3 364.2H305.7L308.7 372.2H310.3L313.2 364.2Z" fill="#01FA6F"/>
<path d="M315.7 364.2H314.2V372.2H315.7V364.2Z" fill="#01FA6F"/>
<path d="M322.2 365.5V364.2H317V372.2H322.2V370.9H318.6V368.8H321.7V367.5H318.6V365.5H322.2Z" fill="#01FA6F"/>
<path d="M328.3 366.7H328.4L329.8 372.2H331.4L333.5 364.2H332.1L330.6 369.9H330.5L329.1 364.2H327.6L326.1 369.9L324.6 364.2H323.2L325.3 372.2H326.8L328.3 366.7Z" fill="#01FA6F"/>
<path d="M315.7 398.1L317.7 396.1L316.9 395.3L313.4 398.8L316.9 402.2L317.7 401.4L315.7 399.4H326.2V398.2H315.7V398.1Z" fill="#01FA6F"/>
<path d="M239.9 366.5L236 374.6H243.7L239.9 366.5ZM239.9 369.1L242 373.5H237.8L239.9 369.1Z" fill="#01FA6F"/>
<path d="M239.9 397.7L243.8 389.6H236L239.9 397.7ZM239.9 395.2L237.8 390.8H242L239.9 395.2Z" fill="#01FA6F"/>
<path d="M343.1 382.8H297.3V383.9H343.1V382.8Z" fill="#01FA6F"/>
<path d="M156.8 0C97.9 61.8 54.4 135.2 27.7 218C2.7 295.3 0 358.2 0 381.6C0 438.9 5 489.2 6.6 503.3H7.6C6 489.4 1 439 1 381.6C1 345.3 8.59999 156.4 158.2 0H156.8Z" fill="#01FA6F"/>
<path d="M793.7 267.7C799.7 268.9 827.7 274.5 861.5 281V280C826 273.2 797 267.3 793.1 266.5C788.8 258.3 782.7 251.9 774.1 247.8C743.3 233.1 700.4 217.4 579.1 217.4C457.8 217.4 414.8 233.1 384.1 247.8C375.5 251.9 369.5 258.4 365.1 266.5C355.3 268.5 182.1 303.4 155.6 303.4C144.5 303.4 114.1 295.1 114.1 268.4C114.1 201.2 151.9 172.1 179.5 150.8C186.6 145.3 192.8 140.6 197.6 135.8C206.7 126.7 212.6 114.7 219.6 100.9C227.3 85.4 236.1 67.8 251.6 48.4C273.9 20.5 293.7 4.2 299 0H297.4C290.9 5.2 272 21.4 250.7 47.8C235.1 67.3 226.3 84.9 218.6 100.4C211.7 114.2 205.8 126.1 196.8 135.1C192 139.9 185.9 144.6 178.8 150.1C151 171.5 113 200.8 113 268.5C113 296 144.2 304.5 155.5 304.5C181.6 304.5 348.5 270.9 364.4 267.7C360.8 275 358.4 283.5 357 292.9C351 293.9 300.7 302 270.1 308.4C265.4 309.4 260.5 310.2 255.4 311.1C224.2 316.4 188.9 322.4 163 364.3C132.7 413.2 136.1 419.9 137.2 422.1C138.6 424.9 145 431.3 174.3 431.3C203.3 431.3 347.5 428.7 357.8 428.5C357.1 430.4 356.3 431.6 355.8 432.3C355.7 432.5 355.6 432.6 355.5 432.8C354.6 434.3 355.1 438 355.3 439.5C352.6 439.8 338.2 441.2 293.9 442.9C244.5 444.9 192.1 445.6 168.9 445.6C142.7 445.6 131.2 472 129.1 477.3C125.8 485.9 123.4 497.5 122.4 503.4L123.4 503.3C124.5 497.4 126.8 486 130 477.6C132 472.4 143.4 446.6 168.9 446.6C192.1 446.6 244.5 445.9 293.9 443.9C338.4 442.1 352.8 440.7 355.4 440.5C355.8 443.2 358 456.9 361 468.1C363.5 477.6 369.9 495.3 372.9 503.3H374C371.1 495.5 364.6 477.4 362 467.8C358.7 455.5 356.3 440 356.3 439.9L356.2 439.4C355.9 437.8 355.5 434.5 356.2 433.4C356.3 433.3 356.4 433.1 356.5 432.9C358 430.8 361.4 425.9 359.7 410.1C359.4 407.4 359.1 404.7 358.8 401.8C357.1 386.9 354.9 368.3 355.2 335.1C355.4 308.3 356.6 284.1 365.3 267.4C365.4 267.4 365.4 267.4 365.4 267.4V267.2C369.7 259.1 375.7 252.7 384.2 248.7C414.9 234 457.7 218.4 578.8 218.4C699.9 218.4 742.8 234 773.4 248.7C782 252.8 788 259.2 792.2 267.2V267.4H792.3C801 284.2 802.2 308.3 802.4 335.1C802.7 368.2 800.5 386.8 798.8 401.8C798.5 404.7 798.2 407.4 797.9 410.1C796.2 425.9 799.6 430.8 801.1 432.9C801.2 433.1 801.3 433.2 801.4 433.4C802.1 434.5 801.7 437.8 801.4 439.4L801.3 439.9C801.3 440.1 798.9 455.5 795.6 467.8C793 477.4 786.5 495.6 783.6 503.3H784.7C787.6 495.3 794 477.5 796.6 468C799.6 456.8 801.8 443.1 802.2 440.4C804.8 440.7 818.6 442 861.1 443.7V442.7C818.9 441 805 439.7 802.4 439.4C802.7 438 803.2 434.2 802.2 432.7C802.1 432.6 802 432.4 801.9 432.2C801.4 431.4 800.6 430.3 799.9 428.3C802.5 428.3 828.9 428.8 861.2 429.4V428.3C830.5 427.8 804.9 427.3 799.6 427.2C798.6 423.9 798 418.6 798.9 410C799.2 407.3 799.5 404.6 799.8 401.7C801.5 386.7 803.7 368.1 803.4 334.9C803.3 320.4 802.8 306.3 801 293.7C807.8 294.8 835.4 299.3 861.2 304V302.9C834.3 298 805.6 293.3 800.9 292.6C799.6 283.5 797.3 275 793.7 267.7ZM354.4 335.3C354.1 368.5 356.3 387.1 358 402.1C358.3 405 358.6 407.7 358.9 410.4C359.8 419 359.2 424.3 358.2 427.6C343.5 427.9 202.8 430.3 174.3 430.3C144.8 430.3 139.2 423.7 138.2 421.7C135.4 416.2 144.1 397.1 163.9 364.9C189.5 323.5 224.6 317.5 255.5 312.2C260.7 311.3 265.5 310.5 270.2 309.5C299.9 303.3 348.3 295.4 356.7 294.1C355 306.7 354.5 320.8 354.4 335.3Z" fill="#01FA6F"/>
<path d="M768.5 335.8C767.7 334 766.6 332.4 765.5 330.8C761.2 324.4 756.5 318.3 751.2 312.6C748.6 309.8 745.8 307.1 742.9 304.6C740 302 737.1 299.5 734.2 297.1C731.3 294.6 728.3 292.2 725.3 289.8L720.8 286.2C719.3 285 717.8 283.8 716 282.9C714.3 282 712.4 281.4 710.5 281C708.6 280.6 706.7 280.2 704.9 279.8C701.1 279 697.3 278.3 693.6 277.7C686 276.4 678.4 275.3 670.8 274.3C640.3 270.4 609.5 268.7 578.7 268.6C547.9 268.7 517.1 270.4 486.6 274.3C479 275.3 471.4 276.4 463.8 277.7C460 278.4 456.2 279.1 452.5 279.8C450.6 280.2 448.7 280.6 446.9 281C445 281.4 443.1 282 441.4 282.9C439.7 283.8 438.1 285 436.6 286.2L432.1 289.8C429.1 292.2 426.1 294.6 423.2 297.1C420.3 299.6 417.3 302.1 414.5 304.6C411.6 307.1 408.8 309.8 406.2 312.6C400.9 318.2 396.3 324.4 391.9 330.8C390.8 332.4 389.7 334 388.9 335.8C388.1 337.6 387.6 339.5 387.3 341.4C387 343.3 387.1 345.3 387.1 347.2C387.1 349.1 387.2 351 387.2 353C387.6 368.4 389.5 383.7 392.3 398.8C395.1 413.9 398.8 428.9 403 443.7C407.2 458.5 412 473.1 417.4 487.5C412 473.1 407.4 458.4 403.2 443.6C399.1 428.8 395.5 413.8 392.8 398.7C390.1 383.6 388.2 368.3 387.8 352.9C387.8 351 387.7 349.1 387.7 347.1C387.7 345.2 387.7 343.3 387.9 341.4C388.1 339.5 388.6 337.7 389.4 336C390.2 334.3 391.3 332.7 392.4 331.1C396.7 324.8 401.4 318.6 406.6 313C409.2 310.2 412 307.6 414.9 305.1C417.8 302.6 420.7 300.1 423.6 297.6C426.5 295.1 429.5 292.7 432.5 290.3L437 286.7C438.5 285.5 440 284.3 441.7 283.5C443.4 282.6 445.2 282.1 447 281.7C448.9 281.3 450.8 280.9 452.6 280.5C456.4 279.7 460.1 279.1 463.9 278.4C471.5 277.1 479.1 276 486.7 275C517.2 271.1 547.9 269.5 578.7 269.4C609.4 269.4 640.2 271.1 670.7 275C678.3 276 685.9 277.1 693.5 278.4C697.3 279.1 701.1 279.7 704.8 280.5C706.7 280.9 708.6 281.3 710.4 281.7C712.3 282.1 714.1 282.6 715.7 283.5C717.4 284.4 718.9 285.5 720.4 286.7L724.9 290.3C727.9 292.7 730.9 295.1 733.8 297.6C736.7 300.1 739.7 302.6 742.5 305.1C745.4 307.6 748.2 310.2 750.8 313C756.1 318.6 760.7 324.7 765 331.1C766.1 332.7 767.2 334.2 768 336C768.8 337.7 769.3 339.6 769.5 341.4C769.8 343.3 769.8 345.2 769.7 347.1C769.7 349 769.6 350.9 769.6 352.9C769.3 368.3 767.3 383.5 764.6 398.7C761.9 413.8 758.3 428.8 754.2 443.6C750 458.4 745.4 473.1 740 487.5C745.5 473.1 750.2 458.5 754.4 443.7C758.6 428.9 762.3 413.9 765.1 398.8C767.9 383.7 769.8 368.4 770.2 353C770.2 351.1 770.3 349.1 770.3 347.2C770.3 345.3 770.3 343.3 770.1 341.4C769.8 339.5 769.3 337.6 768.5 335.8Z" fill="#01FA6F"/>
</svg>
