<svg width="490" height="29" viewBox="0 0 490 29" fill="none" xmlns="http://www.w3.org/2000/svg">
<path d="M8.18996 2.42019H11.82L19.8 23.0002H16.77L14.7 17.5102H5.15996L3.14996 23.0002H0.209961L8.18996 2.42019ZM13.77 15.0202L11.37 8.60019L9.98996 4.88019H9.83996L8.48996 8.5402L6.08996 15.0202H13.77Z" fill="#FAF6F5"/>
<path d="M22.0197 7.22019H24.0297L24.3297 9.59019H24.5097C24.8097 8.81019 25.2597 8.16019 25.8597 7.64019C26.4597 7.12019 27.2497 6.86019 28.2297 6.86019C28.7697 6.86019 29.2397 6.94019 29.6397 7.10019V9.6502H28.5297C27.4097 9.6502 26.4797 9.9802 25.7397 10.6402C25.0197 11.2802 24.6597 12.2902 24.6597 13.6702V23.0002H22.0197V7.22019Z" fill="#FAF6F5"/>
<path d="M38.01 23.3602C35.61 23.3602 33.85 22.7002 32.73 21.3802C31.61 20.0402 31.05 17.9502 31.05 15.1102C31.05 12.2902 31.61 10.2102 32.73 8.8702C33.87 7.53019 35.63 6.86019 38.01 6.86019C40.17 6.86019 41.75 7.38019 42.75 8.42019C43.75 9.46019 44.25 11.0102 44.25 13.0702H41.55C41.55 11.6502 41.29 10.6302 40.77 10.0102C40.27 9.37019 39.35 9.05019 38.01 9.05019C36.55 9.05019 35.48 9.53019 34.8 10.4902C34.12 11.4302 33.78 12.9702 33.78 15.1102V15.2302C33.78 17.3502 34.11 18.8702 34.77 19.7902C35.43 20.7102 36.51 21.1702 38.01 21.1702C39.33 21.1702 40.27 20.8402 40.83 20.1802C41.41 19.5002 41.7 18.4902 41.7 17.1502H44.25C44.25 18.9502 43.74 20.4402 42.72 21.6202C41.7 22.7802 40.13 23.3602 38.01 23.3602Z" fill="#FAF6F5"/>
<path d="M47.01 1.31019H49.65V8.9902H49.86C50.96 7.57019 52.62 6.86019 54.84 6.86019C58.12 6.86019 59.76 8.65019 59.76 12.2302V23.0002H57.12V12.4102C57.12 11.1502 56.84 10.2802 56.28 9.80019C55.72 9.30019 54.91 9.05019 53.85 9.05019C53.09 9.05019 52.39 9.24019 51.75 9.6202C51.11 9.98019 50.6 10.5102 50.22 11.2102C49.84 11.9102 49.65 12.7302 49.65 13.6702V23.0002H47.01V1.31019Z" fill="#FAF6F5"/>
<path d="M63.6799 1.31019H66.2899V4.1602H63.6799V1.31019ZM63.6799 7.22019H66.3199V23.0002H63.6799V7.22019Z" fill="#FAF6F5"/>
<path d="M68.7103 7.22019H71.5003L74.2903 15.1102C74.6903 16.2302 75.2103 17.8802 75.8503 20.0602H76.0003C76.5803 18.0002 77.0903 16.3502 77.5303 15.1102L80.2903 7.22019H82.9303L77.1403 23.0002H74.5003L68.7103 7.22019Z" fill="#FAF6F5"/>
<path d="M91.6603 23.3602C89.2403 23.3602 87.4203 22.6902 86.2003 21.3502C84.9803 19.9902 84.3703 17.9102 84.3703 15.1102C84.3703 12.3102 84.9803 10.2402 86.2003 8.9002C87.4203 7.54019 89.2403 6.86019 91.6603 6.86019C94.0803 6.86019 95.9003 7.54019 97.1203 8.9002C98.3403 10.2402 98.9503 12.3102 98.9503 15.1102C98.9503 17.9102 98.3403 19.9902 97.1203 21.3502C95.9003 22.6902 94.0803 23.3602 91.6603 23.3602ZM91.6603 21.1702C93.2603 21.1702 94.4203 20.7102 95.1403 19.7902C95.8603 18.8502 96.2203 17.3302 96.2203 15.2302V14.9902C96.2203 12.8902 95.8603 11.3802 95.1403 10.4602C94.4203 9.5202 93.2603 9.05019 91.6603 9.05019C90.0603 9.05019 88.9003 9.5202 88.1803 10.4602C87.4603 11.3802 87.1003 12.8902 87.1003 14.9902V15.2302C87.1003 17.3302 87.4603 18.8502 88.1803 19.7902C88.9003 20.7102 90.0603 21.1702 91.6603 21.1702Z" fill="#FAF6F5"/>
<path d="M110.35 7.22019H112.36L112.66 9.59019H112.84C113.14 8.81019 113.59 8.16019 114.19 7.64019C114.79 7.12019 115.58 6.86019 116.56 6.86019C117.1 6.86019 117.57 6.94019 117.97 7.10019V9.6502H116.86C115.74 9.6502 114.81 9.9802 114.07 10.6402C113.35 11.2802 112.99 12.2902 112.99 13.6702V23.0002H110.35V7.22019Z" fill="#FAF6F5"/>
<path d="M127.03 23.3602C124.49 23.3602 122.6 22.6902 121.36 21.3502C120.12 20.0102 119.5 17.9302 119.5 15.1102C119.5 12.2902 120.12 10.2102 121.36 8.8702C122.6 7.53019 124.49 6.86019 127.03 6.86019C129.31 6.86019 131.01 7.47019 132.13 8.6902C133.27 9.8902 133.84 11.8302 133.84 14.5102V15.8302H122.23C122.33 17.6502 122.76 19.0002 123.52 19.8802C124.3 20.7402 125.47 21.1702 127.03 21.1702C128.29 21.1702 129.31 20.8802 130.09 20.3002C130.87 19.7202 131.26 18.8302 131.26 17.6302H133.84C133.84 19.4702 133.2 20.8902 131.92 21.8902C130.66 22.8702 129.03 23.3602 127.03 23.3602ZM131.08 13.6402C131.08 10.5802 129.73 9.05019 127.03 9.05019C125.53 9.05019 124.4 9.41019 123.64 10.1302C122.9 10.8502 122.45 12.0202 122.29 13.6402H131.08Z" fill="#FAF6F5"/>
<path d="M139.83 28.4602C138.67 28.4602 137.66 28.1602 136.8 27.5602C135.96 26.9802 135.54 26.0102 135.54 24.6502C135.54 23.0102 136.39 21.8902 138.09 21.2902C137.61 21.0302 137.21 20.7002 136.89 20.3002C136.59 19.8802 136.44 19.4002 136.44 18.8602C136.44 18.0802 136.71 17.4902 137.25 17.0902C137.81 16.6902 138.42 16.4102 139.08 16.2502C138.42 15.7702 137.9 15.1802 137.52 14.4802C137.14 13.7802 136.95 13.0102 136.95 12.1702C136.95 10.4902 137.52 9.1902 138.66 8.2702C139.8 7.33019 141.36 6.86019 143.34 6.86019C144.44 6.86019 145.44 7.04019 146.34 7.40019C147.64 6.78019 148.4 5.8702 148.62 4.6702H151.14C151.14 5.6102 150.86 6.4202 150.3 7.10019C149.76 7.7802 149.02 8.2302 148.08 8.4502C149.2 9.45019 149.76 10.6902 149.76 12.1702C149.76 13.8502 149.18 15.1602 148.02 16.1002C146.88 17.0202 145.32 17.4802 143.34 17.4802H140.82C140.28 17.4802 139.86 17.6002 139.56 17.8402C139.28 18.0802 139.14 18.3902 139.14 18.7702C139.14 19.1502 139.28 19.4602 139.56 19.7002C139.86 19.9402 140.28 20.0602 140.82 20.0602H147.15C148.39 20.0602 149.37 20.4402 150.09 21.2002C150.81 21.9402 151.17 22.8402 151.17 23.9002C151.17 24.6602 151 25.3902 150.66 26.0902C150.32 26.7902 149.77 27.3602 149.01 27.8002C148.27 28.2402 147.33 28.4602 146.19 28.4602H139.83ZM143.37 15.4402C144.61 15.4402 145.55 15.1602 146.19 14.6002C146.83 14.0202 147.15 13.2102 147.15 12.1702C147.15 11.1302 146.83 10.3302 146.19 9.7702C145.55 9.19019 144.61 8.9002 143.37 8.9002C142.13 8.9002 141.19 9.19019 140.55 9.7702C139.91 10.3302 139.59 11.1302 139.59 12.1702C139.59 13.2102 139.91 14.0202 140.55 14.6002C141.19 15.1602 142.13 15.4402 143.37 15.4402ZM146.25 26.3302C146.91 26.3302 147.46 26.1502 147.9 25.7902C148.34 25.4302 148.56 24.9502 148.56 24.3502C148.56 23.7502 148.38 23.2802 148.02 22.9402C147.68 22.5802 147.22 22.4002 146.64 22.4002H140.07C139.49 22.4002 139.03 22.5802 138.69 22.9402C138.35 23.2802 138.18 23.7502 138.18 24.3502C138.18 24.9502 138.35 25.4302 138.69 25.7902C139.03 26.1502 139.49 26.3302 140.07 26.3302H146.25Z" fill="#FAF6F5"/>
<path d="M158.51 23.3602C156.93 23.3602 155.71 22.9402 154.85 22.1002C154.01 21.2402 153.59 19.8702 153.59 17.9902V7.22019H156.23V17.8102C156.23 19.0702 156.51 19.9502 157.07 20.4502C157.63 20.9302 158.44 21.1702 159.5 21.1702C160.26 21.1702 160.96 20.9902 161.6 20.6302C162.24 20.2502 162.75 19.7102 163.13 19.0102C163.51 18.3102 163.7 17.4902 163.7 16.5502V7.22019H166.34V23.0002H164.33L164.03 20.8702H163.82C162.66 22.5302 160.89 23.3602 158.51 23.3602Z" fill="#FAF6F5"/>
<path d="M170.35 1.31019H172.99V23.0002H170.35V1.31019Z" fill="#FAF6F5"/>
<path d="M181.29 23.3602C179.93 23.3602 178.72 23.0402 177.66 22.4002C176.6 21.7602 176.07 20.6002 176.07 18.9202C176.07 16.9002 176.97 15.5202 178.77 14.7802C180.57 14.0202 183.17 13.6402 186.57 13.6402V11.9002C186.57 10.9802 186.31 10.2802 185.79 9.80019C185.27 9.30019 184.33 9.05019 182.97 9.05019C181.69 9.05019 180.77 9.29019 180.21 9.7702C179.67 10.2502 179.4 10.8402 179.4 11.5402V11.9002H176.85C176.83 11.7802 176.82 11.5602 176.82 11.2402C176.82 9.8402 177.4 8.7602 178.56 8.0002C179.72 7.24019 181.27 6.86019 183.21 6.86019C185.17 6.86019 186.66 7.27019 187.68 8.0902C188.7 8.9102 189.21 10.0702 189.21 11.5702V20.1202C189.21 20.4802 189.31 20.7502 189.51 20.9302C189.71 21.0902 189.96 21.1702 190.26 21.1702H191.46V22.8802C190.94 23.1202 190.26 23.2402 189.42 23.2402C188.74 23.2402 188.17 23.0402 187.71 22.6402C187.25 22.2202 186.94 21.6702 186.78 20.9902H186.57C186.03 21.7302 185.29 22.3102 184.35 22.7302C183.43 23.1502 182.41 23.3602 181.29 23.3602ZM181.98 21.1702C182.76 21.1702 183.5 21.0102 184.2 20.6902C184.9 20.3702 185.47 19.9002 185.91 19.2802C186.35 18.6402 186.57 17.8702 186.57 16.9702V15.8302C183.99 15.8302 182.05 16.0402 180.75 16.4602C179.47 16.8602 178.83 17.6302 178.83 18.7702C178.83 19.6302 179.09 20.2502 179.61 20.6302C180.15 20.9902 180.94 21.1702 181.98 21.1702Z" fill="#FAF6F5"/>
<path d="M193.67 7.22019H195.68L195.98 9.59019H196.16C196.46 8.81019 196.91 8.16019 197.51 7.64019C198.11 7.12019 198.9 6.86019 199.88 6.86019C200.42 6.86019 200.89 6.94019 201.29 7.10019V9.6502H200.18C199.06 9.6502 198.13 9.9802 197.39 10.6402C196.67 11.2802 196.31 12.2902 196.31 13.6702V23.0002H193.67V7.22019Z" fill="#FAF6F5"/>
<path d="M216.21 0.950195H218.31L212.16 24.4702H210.03L216.21 0.950195Z" fill="#FAF6F5"/>
<path d="M228.949 2.42019H233.959L238.279 15.6202C238.539 16.4402 238.849 17.6302 239.209 19.1902H239.329C239.689 17.5102 239.989 16.3202 240.229 15.6202L244.519 2.42019H249.439V23.0002H246.109V9.56019L246.229 5.87019H246.019C245.819 6.77019 245.639 7.4802 245.479 8.0002L240.529 23.0002H237.619L232.729 8.0002C232.629 7.70019 232.489 7.19019 232.309 6.4702L232.159 5.87019H232.009L232.099 9.56019V23.0002H228.949V2.42019Z" fill="#FAF6F5"/>
<path d="M260.359 23.3602C257.819 23.3602 255.929 22.6902 254.689 21.3502C253.449 20.0102 252.829 17.9302 252.829 15.1102C252.829 12.2902 253.449 10.2102 254.689 8.8702C255.929 7.53019 257.819 6.86019 260.359 6.86019C262.659 6.86019 264.379 7.49019 265.519 8.75019C266.659 9.99019 267.229 11.9702 267.229 14.6902V15.8902H256.009C256.089 17.5902 256.469 18.8502 257.149 19.6702C257.849 20.4702 258.929 20.8702 260.389 20.8702C261.529 20.8702 262.449 20.6002 263.149 20.0602C263.849 19.5202 264.199 18.6902 264.199 17.5702H267.229C267.229 19.4502 266.589 20.8902 265.309 21.8902C264.049 22.8702 262.399 23.3602 260.359 23.3602ZM264.019 13.5502C264.019 10.7502 262.799 9.35019 260.359 9.35019C258.999 9.35019 257.979 9.69019 257.299 10.3702C256.619 11.0302 256.209 12.0902 256.069 13.5502H264.019Z" fill="#FAF6F5"/>
<path d="M275.679 23.3602C273.679 23.3602 272.139 22.6902 271.059 21.3502C269.979 19.9902 269.439 17.9102 269.439 15.1102C269.439 12.3502 269.979 10.2902 271.059 8.9302C272.139 7.5502 273.609 6.86019 275.469 6.86019C277.649 6.86019 279.239 7.58019 280.239 9.0202H280.419V1.31019H283.509V23.0002H281.049L280.749 20.9002H280.539C280.039 21.7002 279.359 22.3102 278.499 22.7302C277.659 23.1502 276.719 23.3602 275.679 23.3602ZM276.549 20.7502C277.889 20.7502 278.869 20.2902 279.489 19.3702C280.109 18.4502 280.419 17.0902 280.419 15.2902V15.0502C280.419 11.3302 279.129 9.47019 276.549 9.47019C275.129 9.47019 274.119 9.90019 273.519 10.7602C272.919 11.6002 272.619 13.0202 272.619 15.0202V15.2902C272.619 17.2502 272.919 18.6502 273.519 19.4902C274.119 20.3302 275.129 20.7502 276.549 20.7502Z" fill="#FAF6F5"/>
<path d="M287.597 1.31019H290.657V4.46019H287.597V1.31019ZM287.597 7.22019H290.687V23.0002H287.597V7.22019Z" fill="#FAF6F5"/>
<path d="M299.694 23.3602C296.354 23.3602 294.684 21.5502 294.684 17.9302V7.22019H297.774V17.5402C297.774 18.7202 298.034 19.5502 298.554 20.0302C299.094 20.4902 299.874 20.7202 300.894 20.7202C301.594 20.7202 302.244 20.5502 302.844 20.2102C303.444 19.8502 303.914 19.3502 304.254 18.7102C304.614 18.0702 304.794 17.3302 304.794 16.4902V7.22019H307.884V23.0002H305.394L305.094 20.9002H304.884C304.304 21.7002 303.574 22.3102 302.694 22.7302C301.814 23.1502 300.814 23.3602 299.694 23.3602Z" fill="#FAF6F5"/>
<path d="M311.972 7.22019H314.462L314.762 9.32019H314.972C315.512 8.52019 316.172 7.9102 316.952 7.4902C317.732 7.07019 318.622 6.86019 319.622 6.86019C321.662 6.86019 323.032 7.68019 323.732 9.32019H323.912C324.452 8.54019 325.142 7.94019 325.982 7.5202C326.822 7.08019 327.742 6.86019 328.742 6.86019C330.222 6.86019 331.382 7.26019 332.222 8.06019C333.062 8.8402 333.482 10.1102 333.482 11.8702V23.0002H330.392V12.4702C330.392 11.3902 330.152 10.6302 329.672 10.1902C329.212 9.7302 328.562 9.50019 327.722 9.50019C326.742 9.50019 325.922 9.8902 325.262 10.6702C324.602 11.4502 324.272 12.4702 324.272 13.7302V23.0002H321.182V12.4702C321.182 11.3902 320.952 10.6302 320.492 10.1902C320.052 9.7302 319.412 9.50019 318.572 9.50019C317.592 9.50019 316.762 9.8902 316.082 10.6702C315.402 11.4502 315.062 12.4702 315.062 13.7302V23.0002H311.972V7.22019Z" fill="#FAF6F5"/>
<path d="M349.979 0.950195H352.079L345.93 24.4702H343.799L349.979 0.950195Z" fill="#FAF6F5"/>
<path d="M370.399 23.3602C368.819 23.3602 367.379 23.1302 366.079 22.6702C364.779 22.2102 363.739 21.5102 362.959 20.5702C362.179 19.6102 361.789 18.4302 361.789 17.0302L361.819 16.4002H365.689C365.669 16.5202 365.659 16.7002 365.659 16.9402C365.659 17.9402 366.089 18.7202 366.949 19.2802C367.809 19.8402 368.989 20.1202 370.489 20.1202C372.089 20.1202 373.279 19.8902 374.059 19.4302C374.839 18.9702 375.229 18.3302 375.229 17.5102C375.229 16.8702 374.999 16.3402 374.539 15.9202C374.079 15.5002 373.509 15.1702 372.829 14.9302C372.149 14.6702 371.189 14.3702 369.949 14.0302C368.309 13.5902 366.979 13.1702 365.959 12.7702C364.959 12.3502 364.099 11.7402 363.379 10.9402C362.659 10.1202 362.299 9.0502 362.299 7.7302C362.299 5.8902 363.059 4.4902 364.579 3.53019C366.099 2.55019 368.089 2.0602 370.549 2.0602C372.909 2.0602 374.829 2.5602 376.309 3.5602C377.809 4.54019 378.559 6.03019 378.559 8.0302V8.39019H374.779V8.06019C374.779 7.2002 374.389 6.5302 373.609 6.0502C372.849 5.55019 371.819 5.30019 370.519 5.30019C369.159 5.30019 368.089 5.50019 367.309 5.90019C366.549 6.30019 366.169 6.8602 366.169 7.5802C366.169 8.1202 366.389 8.58019 366.829 8.96019C367.269 9.32019 367.819 9.6202 368.479 9.8602C369.159 10.0802 370.069 10.3402 371.209 10.6402C372.869 11.0802 374.219 11.5102 375.259 11.9302C376.319 12.3502 377.219 12.9702 377.959 13.7902C378.719 14.6102 379.099 15.6702 379.099 16.9702C379.099 19.1702 378.319 20.7902 376.759 21.8302C375.199 22.8502 373.079 23.3602 370.399 23.3602Z" fill="#FAF6F5"/>
<path d="M389.148 23.3602C386.588 23.3602 384.688 22.6902 383.448 21.3502C382.208 20.0102 381.588 17.9302 381.588 15.1102C381.588 12.2902 382.208 10.2102 383.448 8.8702C384.708 7.53019 386.608 6.86019 389.148 6.86019C391.468 6.86019 393.198 7.51019 394.338 8.81019C395.498 10.1102 396.078 12.1402 396.078 14.9002V15.9802H385.248C385.308 17.5402 385.638 18.6902 386.238 19.4302C386.858 20.1502 387.838 20.5102 389.178 20.5102C390.178 20.5102 390.988 20.2602 391.608 19.7602C392.228 19.2402 392.538 18.4802 392.538 17.4802H396.078C396.078 19.4202 395.438 20.8902 394.158 21.8902C392.878 22.8702 391.208 23.3602 389.148 23.3602ZM392.328 13.4302C392.328 10.9502 391.268 9.71019 389.148 9.71019C387.948 9.71019 387.038 10.0202 386.418 10.6402C385.818 11.2402 385.448 12.1702 385.308 13.4302H392.328Z" fill="#FAF6F5"/>
<path d="M399.248 7.22019H402.218L402.518 9.32019H402.728C403.248 8.56019 403.888 7.9602 404.648 7.5202C405.428 7.08019 406.318 6.86019 407.318 6.86019C409.338 6.86019 410.708 7.68019 411.428 9.32019H411.668C412.188 8.58019 412.858 7.9902 413.678 7.55019C414.498 7.09019 415.408 6.86019 416.408 6.86019C417.908 6.86019 419.088 7.28019 419.948 8.1202C420.808 8.9602 421.238 10.3002 421.238 12.1402V23.0002H417.638V12.8602C417.638 10.9402 416.808 9.9802 415.148 9.9802C414.268 9.9802 413.528 10.3402 412.928 11.0602C412.348 11.7802 412.058 12.7002 412.058 13.8202V23.0002H408.458V12.8602C408.458 10.9402 407.628 9.9802 405.968 9.9802C405.088 9.9802 404.348 10.3402 403.748 11.0602C403.148 11.7802 402.848 12.7002 402.848 13.8202V23.0002H399.248V7.22019Z" fill="#FAF6F5"/>
<path d="M425.352 1.31019H428.892V4.8502H425.352V1.31019ZM425.352 7.22019H428.952V23.0002H425.352V7.22019Z" fill="#FAF6F5"/>
<path d="M441.396 23.3602C440.376 23.3602 439.446 23.1502 438.606 22.7302C437.766 22.3102 437.086 21.7002 436.566 20.9002H436.386L436.086 23.0002H433.116V1.31019H436.716V9.05019H436.896C437.856 7.59019 439.436 6.86019 441.636 6.86019C443.476 6.86019 444.946 7.5502 446.046 8.9302C447.146 10.3102 447.696 12.3602 447.696 15.0802C447.696 17.8802 447.146 19.9602 446.046 21.3202C444.946 22.6802 443.396 23.3602 441.396 23.3602ZM440.316 20.2702C441.636 20.2702 442.576 19.8802 443.136 19.1002C443.696 18.3002 443.976 17.0402 443.976 15.3202V14.9302C443.976 13.1902 443.696 11.9302 443.136 11.1502C442.576 10.3502 441.636 9.95019 440.316 9.95019C437.916 9.95019 436.716 11.6202 436.716 14.9602V15.3202C436.716 16.9602 437.006 18.2002 437.586 19.0402C438.166 19.8602 439.076 20.2702 440.316 20.2702Z" fill="#FAF6F5"/>
<path d="M457.65 23.3602C455.05 23.3602 453.099 22.6902 451.799 21.3502C450.519 20.0102 449.879 17.9302 449.879 15.1102C449.879 12.2902 450.519 10.2102 451.799 8.8702C453.099 7.53019 455.05 6.86019 457.65 6.86019C460.25 6.86019 462.19 7.53019 463.47 8.8702C464.77 10.2102 465.419 12.2902 465.419 15.1102C465.419 17.9302 464.77 20.0102 463.47 21.3502C462.19 22.6902 460.25 23.3602 457.65 23.3602ZM457.65 20.4202C459.07 20.4202 460.1 20.0102 460.74 19.1902C461.38 18.3502 461.699 17.0602 461.699 15.3202V14.9002C461.699 13.1602 461.38 11.8802 460.74 11.0602C460.1 10.2202 459.07 9.80019 457.65 9.80019C456.21 9.80019 455.17 10.2202 454.53 11.0602C453.91 11.8802 453.599 13.1602 453.599 14.9002V15.3202C453.599 17.0602 453.91 18.3502 454.53 19.1902C455.17 20.0102 456.21 20.4202 457.65 20.4202Z" fill="#FAF6F5"/>
<path d="M468.623 1.31019H472.223V23.0002H468.623V1.31019Z" fill="#FAF6F5"/>
<path d="M481.667 23.3602C479.667 23.3602 478.117 22.6802 477.017 21.3202C475.917 19.9602 475.367 17.8802 475.367 15.0802C475.367 12.3602 475.917 10.3102 477.017 8.9302C478.117 7.5502 479.587 6.86019 481.427 6.86019C483.627 6.86019 485.207 7.59019 486.167 9.05019H486.347V1.31019H489.947V23.0002H486.977L486.677 20.9002H486.497C485.977 21.7002 485.297 22.3102 484.457 22.7302C483.617 23.1502 482.687 23.3602 481.667 23.3602ZM482.747 20.2702C483.987 20.2702 484.897 19.8602 485.477 19.0402C486.057 18.2002 486.347 16.9602 486.347 15.3202V14.9602C486.347 11.6202 485.147 9.95019 482.747 9.95019C481.427 9.95019 480.487 10.3502 479.927 11.1502C479.367 11.9302 479.087 13.1902 479.087 14.9302V15.3202C479.087 17.0402 479.367 18.3002 479.927 19.1002C480.487 19.8802 481.427 20.2702 482.747 20.2702Z" fill="#FAF6F5"/>
</svg>
