<svg width="486" height="108" viewBox="0 0 486 108" fill="none" xmlns="http://www.w3.org/2000/svg">
<rect width="108" height="108" rx="27" fill="#EDE9E8"/>
<path d="M199.894 36H186.317L169.947 63.5229L153.577 36H140V75H150.057V48.2571L166.315 75H173.579L189.837 48.2571V75H199.894V36Z" fill="#FAF6F5"/>
<path d="M216.954 36H206.897V75H216.954V36Z" fill="#FAF6F5"/>
<path d="M277.114 36H261.862L233.982 56.2243V36H223.925V75H233.982V67.5343L245.994 58.7871L263.202 75H277.114L253.425 53.3271L277.114 36Z" fill="#FAF6F5"/>
<path d="M323.95 75H335.069L314.843 36H301.267L281.097 75H292.16L296.35 66.6986H319.76L323.95 75ZM300.093 59.2329L308.083 43.41L316.017 59.2329H300.093Z" fill="#FAF6F5"/>
<path d="M385.69 50.3186C385.69 41.6271 379.6 36 370.716 36H339.987V75H350.044V64.5814H366.246L372.56 75H384.404L377.197 63.4114C382.449 61.35 385.69 56.67 385.69 50.3186ZM350.044 44.4129H367.922C370.939 44.4129 375.633 44.4129 375.633 50.3186C375.633 56.1686 370.939 56.1686 367.922 56.1686H350.044V44.4129Z" fill="#FAF6F5"/>
<path d="M438.279 36H390.23V44.4129H409.226V75H419.283V44.4129H438.279V36Z" fill="#FAF6F5"/>
<path d="M474.882 75H486L465.775 36H452.198L432.028 75H443.091L447.281 66.6986H470.691L474.882 75ZM451.025 59.2329L459.014 43.41L466.948 59.2329H451.025Z" fill="#FAF6F5"/>
<path d="M75.8338 26.3654L36.9726 78.822C36.363 79.7505 35.7534 80.3694 35.1438 80.9884C36.0582 79.9052 36.6678 78.6673 37.2774 77.2746L49.8391 53.2901C50.7308 51.5875 50.5677 49.5245 49.4195 47.9832L33.3151 26.3654C30.8767 23.4253 26 25.5917 26 29.4602V78.6673C26 81.1431 27.9812 83 30.2671 83H78.7294C81.1677 83 82.9965 80.9884 82.9965 78.6673V29.4602C83.1489 25.5917 78.2722 23.4253 75.8338 26.3654Z" fill="#D33F0D"/>
</svg>
