<svg width="441" height="25" viewBox="0 0 441 25" fill="none" xmlns="http://www.w3.org/2000/svg">
<path d="M32.45 3H25.16L16.37 17.82L7.58004 3H0.290039V24H5.69004V9.6L14.42 24H18.32L27.05 9.6V24H32.45V3Z" fill="#FAF6F5"/>
<path d="M46.8004 24.3C54.0904 24.3 59.0404 21.66 59.0404 15.18C59.0404 8.67 54.0904 6.03 46.8004 6.03C39.4804 6.03 34.5604 8.67 34.5604 15.18C34.5604 21.66 39.4804 24.3 46.8004 24.3ZM46.8004 20.01C42.0303 20.01 39.6903 18.84 39.6903 15.18C39.6903 11.49 42.0303 10.32 46.8004 10.32C51.5404 10.32 53.8804 11.49 53.8804 15.18C53.8804 18.84 51.5404 20.01 46.8004 20.01Z" fill="#FAF6F5"/>
<path d="M76.4132 6.03C72.1232 6.03 68.6432 7.44 66.1232 9.42V6.33H60.9932V24H66.1232V14.1C67.7132 12.24 71.4332 10.47 74.8832 10.47C79.1132 10.47 80.3732 12.42 80.3732 16.17V24H85.5332L85.5932 14.22C85.5332 7.71 81.1232 6.03 76.4132 6.03Z" fill="#FAF6F5"/>
<path d="M107.269 6.33V16.23C105.679 18.09 101.959 19.86 98.5091 19.86C94.2791 19.86 93.0191 17.91 93.0191 14.16V6.33H87.8591L87.7991 16.11C87.8591 22.62 92.2691 24.3 96.9791 24.3C101.269 24.3 104.749 22.89 107.269 20.91V24H112.399V6.33H107.269Z" fill="#FAF6F5"/>
<path d="M145.472 6.03C141.092 6.03 137.942 7.56 135.662 9.27C134.312 6.81 131.792 6.03 129.122 6.03C124.742 6.03 121.862 7.68 119.942 9.21V6.33H114.812V24H119.942V13.59C121.412 12 124.292 10.47 127.262 10.47C130.922 10.47 131.552 12.42 131.552 16.17V24H136.682L136.742 14.1C136.742 13.77 136.742 13.47 136.712 13.17C138.272 11.76 140.912 10.47 143.612 10.47C147.272 10.47 147.902 12.42 147.902 16.17V24H153.032L153.092 14.1C153.032 7.71 149.432 6.03 145.472 6.03Z" fill="#FAF6F5"/>
<path d="M166.852 20.13C163.432 20.13 160.732 19.2 160.162 16.38H179.242C179.242 8.34 173.872 6.03 167.152 6.03C159.982 6.03 154.912 8.67 154.912 15.18C154.912 21.66 160.132 24.3 166.852 24.3C173.392 24.3 177.772 22.17 178.942 17.67H173.842C172.552 19.47 170.392 20.13 166.852 20.13ZM167.122 9.93C170.362 9.93 172.882 10.62 173.752 13.11H160.342C161.152 10.62 163.612 9.93 167.122 9.93Z" fill="#FAF6F5"/>
<path d="M196.618 6.03C192.328 6.03 188.848 7.44 186.328 9.42V6.33H181.198V24H186.328V14.1C187.918 12.24 191.638 10.47 195.088 10.47C199.318 10.47 200.578 12.42 200.578 16.17V24H205.738L205.798 14.22C205.738 7.71 201.328 6.03 196.618 6.03Z" fill="#FAF6F5"/>
<path d="M224.918 10.62V6.33H216.548V1.2L211.388 2.67V6.33H206.738V10.62H211.388V18.69C211.388 22.59 214.328 24.3 218.888 24.3C221.258 24.3 223.208 24.15 224.918 23.85V19.71C222.848 20.01 221.948 20.01 220.328 20.01C217.208 20.01 216.548 19.14 216.548 15.72V10.62H224.918Z" fill="#FAF6F5"/>
<path d="M263.105 7.29V3H240.905V24H263.105V19.71H246.305V15.45H263.105V11.55H246.305V7.29H263.105Z" fill="#FAF6F5"/>
<path d="M264.394 24H271.294L277.774 18.15L284.254 24H291.154L281.194 15.18L291.154 6.33H284.254L277.774 12.18L271.294 6.33H264.394L274.324 15.18L264.394 24Z" fill="#FAF6F5"/>
<path d="M309.85 10.62V6.33H301.48V1.2L296.32 2.67V6.33H291.67V10.62H296.32V18.69C296.32 22.59 299.26 24.3 303.82 24.3C306.19 24.3 308.14 24.15 309.85 23.85V19.71C307.78 20.01 306.88 20.01 305.26 20.01C302.14 20.01 301.48 19.14 301.48 15.72V10.62H309.85Z" fill="#FAF6F5"/>
<path d="M323.063 20.13C319.643 20.13 316.943 19.2 316.373 16.38H335.453C335.453 8.34 330.083 6.03 323.363 6.03C316.193 6.03 311.123 8.67 311.123 15.18C311.123 21.66 316.343 24.3 323.063 24.3C329.603 24.3 333.983 22.17 335.153 17.67H330.053C328.763 19.47 326.603 20.13 323.063 20.13ZM323.333 9.93C326.573 9.93 329.093 10.62 329.963 13.11H316.553C317.363 10.62 319.823 9.93 323.333 9.93Z" fill="#FAF6F5"/>
<path d="M352.829 6.03C348.539 6.03 345.059 7.44 342.539 9.42V6.33H337.409V24H342.539V14.1C344.129 12.24 347.849 10.47 351.299 10.47C355.529 10.47 356.789 12.42 356.789 16.17V24H361.949L362.009 14.22C361.949 7.71 357.539 6.03 352.829 6.03Z" fill="#FAF6F5"/>
<path d="M383.149 0V9.09C381.229 7.08 378.139 6.03 374.329 6.03C368.659 6.03 363.799 8.43 363.799 15.18C363.799 21.93 368.659 24.3 374.329 24.3C378.139 24.3 381.229 23.25 383.149 21.24V24H388.279V0H383.149ZM376.039 20.01C371.449 20.01 368.959 18.66 368.959 15.18C368.959 11.67 371.449 10.32 376.039 10.32C380.629 10.32 383.149 11.67 383.149 15.18C383.149 18.66 380.629 20.01 376.039 20.01Z" fill="#FAF6F5"/>
<path d="M402.164 20.13C398.744 20.13 396.044 19.2 395.474 16.38H414.554C414.554 8.34 409.184 6.03 402.464 6.03C395.294 6.03 390.224 8.67 390.224 15.18C390.224 21.66 395.444 24.3 402.164 24.3C408.704 24.3 413.084 22.17 414.254 17.67H409.154C407.864 19.47 405.704 20.13 402.164 20.13ZM402.434 9.93C405.674 9.93 408.194 10.62 409.064 13.11H395.654C396.464 10.62 398.924 9.93 402.434 9.93Z" fill="#FAF6F5"/>
<path d="M435.385 0V9.09C433.465 7.08 430.375 6.03 426.565 6.03C420.895 6.03 416.035 8.43 416.035 15.18C416.035 21.93 420.895 24.3 426.565 24.3C430.375 24.3 433.465 23.25 435.385 21.24V24H440.515V0H435.385ZM428.275 20.01C423.685 20.01 421.195 18.66 421.195 15.18C421.195 11.67 423.685 10.32 428.275 10.32C432.865 10.32 435.385 11.67 435.385 15.18C435.385 18.66 432.865 20.01 428.275 20.01Z" fill="#FAF6F5"/>
</svg>
