<svg width="440" height="440" viewBox="0 0 440 440" fill="none" xmlns="http://www.w3.org/2000/svg">
<path d="M143.322 167.83C135.064 174.3 134.773 181.356 135.332 184.973C135.76 187.808 137.282 191.869 142.115 195.138C144.814 196.961 148.16 198.233 151.834 199.048C160.567 200.984 171.143 200.35 179.233 198.422C194.611 194.779 211.454 186.526 220.197 178.358C223.845 174.938 224.045 169.213 220.629 165.564C217.22 161.913 211.5 161.701 207.843 165.127C202.351 170.268 188.987 177.504 175.067 180.806C167.016 182.71 159.762 182.392 155.348 181.318C158.513 178.117 158.87 172.986 156.031 169.365C152.944 165.417 147.259 164.746 143.322 167.83Z" fill="#D33F0D"/>
<path d="M41.5142 174.093C37.1265 204.652 29.0643 310.992 117.31 364.951C122.157 378.117 126.392 380.264 128.081 381.123C143.508 388.894 161.005 394.979 180.098 399.213C198.789 403.358 216.857 405.25 233.828 404.835C238.613 404.705 244.923 401.258 252.638 394.566C272.679 392.17 290.179 386.357 305.505 378.424C306.518 378.093 307.427 377.61 308.239 376.983C372.509 342.04 396.671 268.948 401.96 250.087C402.147 249.489 403.129 245.624 403.152 245.521C410.567 212.081 331.588 184.808 273.901 169.521C315.568 132.103 350.653 123.935 384.581 116.09C393.474 114.026 401.883 112.093 410.324 109.636C421.107 106.528 427.164 98.0611 425.319 88.2092C423.792 79.4433 415.816 72.9114 407.046 73.1018C346.982 74.3316 297.838 101.815 261.96 121.883C256.996 124.647 252.298 127.282 247.873 129.668C236.676 135.701 220.737 137.732 204.128 135.231C178.872 131.407 156.577 135.321 139.735 143.423C78.6148 136.723 47.7815 143.795 42.937 165.642C42.9141 165.746 41.5833 171.822 41.5142 174.093ZM119.262 209.875C104.785 204.693 93.4547 199.799 84.8016 195.319C89.0955 195.314 105.372 195.999 109.015 196.272C111.22 201.699 114.925 206.231 119.262 209.875ZM299.259 361.263C255.393 369.276 206.897 363.311 184.926 358.439C180.042 357.356 175.21 360.446 174.128 365.324C173.048 370.199 176.124 375.043 181.004 376.125C195.874 379.422 216.018 382.213 238.02 383.085C235.807 384.796 233.74 386.231 232.604 386.739C217.328 387.058 200.988 385.307 184.016 381.543C166.877 377.743 151.205 372.358 137.426 365.551C136.363 363.811 134.563 359.63 133.365 356.01C132.661 353.932 131.235 352.153 129.334 351.046C62.0459 311.708 55.0182 239.823 57.0518 199.277C76.5344 214.561 119.409 233.711 212.237 254.295C252.855 263.302 334.432 278.746 376.55 268.41C365.316 296.056 342.052 338.224 299.259 361.263ZM385.493 241.601C385.466 241.72 385.159 243.01 384.557 245.2C379.714 254.647 327.727 261.357 216.157 236.617C196.363 232.228 178.939 227.905 163.583 223.672C177.155 223.669 193.336 220.756 211.928 212.428C214.969 213.085 218.009 213.743 221.078 214.423C258.914 222.813 293.646 232.679 321.517 242.937C321.905 243.073 322.296 243.193 322.702 243.283C327.048 244.247 331.556 241.866 333.137 237.562C334.861 232.872 332.462 227.665 327.771 225.94C301.892 216.416 270.323 207.255 235.962 199.26C242.76 194.893 249.819 189.798 257.105 183.926C351.503 207.524 387.39 233.047 385.493 241.601ZM201.423 153.137C221.797 156.435 241.885 153.468 256.446 145.6C260.958 143.183 265.739 140.507 270.787 137.687C305.008 118.555 351.876 92.3552 407.399 90.6993C407.42 90.9046 407.45 91.1116 407.478 91.285C407.075 91.5591 389.162 96.445 380.51 98.4413C345.469 106.54 305.751 115.733 259.673 157.939C218.985 195.216 180.42 211.132 148.168 203.98C146.727 203.661 145.491 203.357 144.57 203.107C144.334 203.038 121.385 196.608 125.527 181.47C132.508 155.956 172.528 148.455 201.423 153.137ZM117.665 159.692C112.936 165.049 109.602 170.877 108.028 176.867C107.922 177.265 107.892 177.626 107.805 178.021C104.866 177.812 101.985 177.637 99.1746 177.506C84.7285 176.835 72.3147 177.225 61.9258 178.539C58.8838 176.081 60.506 169.989 60.6014 169.559C61.7807 164.259 75.6081 157.193 117.665 159.692Z" fill="#D33F0D"/>
<path d="M210.532 106.785C211.843 109.119 214.018 110.646 216.43 111.181C218.5 111.64 220.747 111.374 222.759 110.27C227.114 107.88 228.716 102.386 226.374 98.0144C224.862 95.189 222.049 88.2143 228.621 84.4738C234.944 80.8745 239.202 75.6058 240.944 69.24C243.972 58.1456 238.306 47.7641 237.641 46.6182C235.185 42.309 229.74 40.8215 225.396 43.2552C221.061 45.6866 219.52 51.186 221.9 55.5369C223.397 58.2755 226.175 65.0334 219.671 68.7306C202.744 78.364 204.936 96.7662 210.532 106.785Z" fill="#D33F0D"/>
<path d="M159.706 111.794C161.017 114.132 163.193 115.655 165.605 116.189C167.675 116.648 169.924 116.374 171.925 115.276C176.284 112.888 177.89 107.398 175.549 103.023C174.03 100.192 171.218 93.213 177.799 89.483C184.124 85.8758 188.381 80.6151 190.124 74.2413C193.151 63.1509 187.485 52.7694 186.824 51.6283C184.364 47.335 178.909 45.8538 174.568 48.2755C170.236 50.7118 168.703 56.213 171.084 60.5766C172.573 63.2967 175.353 70.0427 168.855 73.7367C151.913 83.3626 154.099 101.772 159.706 111.794Z" fill="#D33F0D"/>
</svg>
