<svg width="356" height="309" viewBox="0 0 356 309" fill="none" xmlns="http://www.w3.org/2000/svg">
<mask id="mask0" mask-type="alpha" maskUnits="userSpaceOnUse" x="0" y="0" width="356" height="309">
<rect width="356" height="309" fill="#C4C4C4"/>
</mask>
<g mask="url(#mask0)">
<path d="M71.3221 129.83C63.0637 136.3 62.773 143.356 63.3323 146.973C63.76 149.808 65.2817 153.868 70.115 157.138C72.8135 158.961 76.1602 160.233 79.834 161.048C88.5666 162.984 99.1429 162.35 107.233 160.422C122.611 156.779 139.454 148.526 148.197 140.358C151.845 136.938 152.045 131.213 148.629 127.564C145.22 123.913 139.5 123.701 135.843 127.127C130.351 132.268 116.987 139.504 103.067 142.806C95.0158 144.71 87.7616 144.392 83.3479 143.318C86.5131 140.117 86.87 134.986 84.0315 131.365C80.9439 127.417 75.259 126.746 71.3221 129.83Z" fill="#D33F0D"/>
<path d="M-30.4858 136.093C-34.8735 166.652 -42.9357 272.992 45.3098 326.951C50.1575 340.117 54.392 342.264 56.0807 343.123C71.5083 350.894 89.0049 356.979 108.098 361.213C126.789 365.358 144.857 367.25 161.828 366.835C166.613 366.705 172.923 363.258 180.638 356.566C200.679 354.17 218.179 348.357 233.505 340.424C234.518 340.093 235.428 339.61 236.239 338.983C300.509 304.04 324.671 230.948 329.96 212.087C330.147 211.489 331.129 207.624 331.152 207.521C338.567 174.081 259.588 146.808 201.9 131.521C243.568 94.1029 278.653 85.9345 312.581 78.0902C321.474 76.0261 329.883 74.0927 338.324 71.6359C349.107 68.5283 355.164 60.0611 353.319 50.2092C351.793 41.4433 343.816 34.9114 335.046 35.1018C274.982 36.3316 225.838 63.8153 189.96 83.8828C184.996 86.6469 180.298 89.2821 175.873 91.6684C164.676 97.7007 148.737 99.7318 132.128 97.2314C106.872 93.4068 84.5773 97.321 67.7348 105.423C6.61476 98.7225 -24.2185 105.795 -29.063 127.642C-29.0859 127.746 -30.4167 133.822 -30.4858 136.093ZM47.2619 171.875C32.7846 166.693 21.4547 161.799 12.8016 157.319C17.0955 157.314 33.372 157.999 37.0155 158.272C39.2196 163.699 42.9251 168.231 47.2619 171.875ZM227.259 323.263C183.393 331.276 134.897 325.311 112.926 320.439C108.042 319.356 103.21 322.446 102.128 327.324C101.048 332.199 104.124 337.043 109.004 338.125C123.874 341.422 144.018 344.213 166.02 345.085C163.807 346.796 161.74 348.231 160.604 348.739C145.328 349.058 128.988 347.307 112.016 343.543C94.8773 339.743 79.2046 334.358 65.426 327.551C64.3627 325.811 62.5628 321.63 61.3653 318.01C60.6611 315.932 59.2347 314.153 57.3337 313.046C-9.95408 273.708 -16.9818 201.823 -14.9482 161.277C4.5344 176.561 47.4094 195.711 140.237 216.295C180.855 225.302 262.432 240.746 304.55 230.41C293.316 258.056 270.052 300.224 227.259 323.263ZM313.493 203.601C313.466 203.72 313.159 205.01 312.557 207.2C307.714 216.647 255.727 223.357 144.157 198.617C124.363 194.228 106.939 189.905 91.5828 185.672C105.155 185.669 121.336 182.756 139.928 174.428C142.969 175.085 146.009 175.743 149.078 176.423C186.914 184.813 221.646 194.679 249.517 204.937C249.905 205.073 250.296 205.193 250.702 205.283C255.048 206.247 259.556 203.866 261.137 199.562C262.861 194.872 260.462 189.665 255.771 187.94C229.892 178.416 198.323 169.255 163.962 161.26C170.76 156.893 177.819 151.798 185.105 145.926C279.503 169.524 315.39 195.047 313.493 203.601ZM129.423 115.137C149.797 118.435 169.885 115.468 184.446 107.6C188.958 105.183 193.739 102.507 198.787 99.6868C233.008 80.5554 279.876 54.3552 335.399 52.6993C335.42 52.9046 335.45 53.1116 335.478 53.285C335.075 53.5591 317.162 58.445 308.51 60.4413C273.469 68.5402 233.751 77.7327 187.673 119.939C146.985 157.216 108.42 173.132 76.1679 165.98C74.7271 165.661 73.4914 165.357 72.5697 165.107C72.3345 165.038 49.3852 158.608 53.5271 143.47C60.5084 117.956 100.528 110.455 129.423 115.137ZM45.6654 121.692C40.9365 127.049 37.602 132.877 36.0275 138.867C35.9224 139.265 35.8925 139.626 35.805 140.021C32.8656 139.812 29.9854 139.637 27.1746 139.506C12.7285 138.835 0.314748 139.225 -10.0742 140.539C-13.1162 138.081 -11.494 131.989 -11.3986 131.559C-10.2193 126.259 3.60811 119.193 45.6654 121.692Z" fill="#D33F0D"/>
<path d="M138.532 68.7854C139.843 71.1193 142.018 72.6462 144.43 73.1811C146.5 73.64 148.747 73.3737 150.759 72.2696C155.114 69.8802 156.716 64.386 154.374 60.0144C152.862 57.189 150.049 50.2143 156.621 46.4738C162.944 42.8745 167.202 37.6058 168.944 31.24C171.972 20.1456 166.306 9.76412 165.641 8.61816C163.185 4.30896 157.74 2.82153 153.396 5.25517C149.061 7.68661 147.52 13.186 149.9 17.5369C151.397 20.2755 154.175 27.0334 147.671 30.7306C130.744 40.364 132.936 58.7662 138.532 68.7854Z" fill="#D33F0D"/>
<path d="M87.7063 73.7937C89.0169 76.1316 91.1932 77.6546 93.6052 78.1894C95.6749 78.6484 97.9239 78.3741 99.9255 77.2762C104.284 74.8876 105.89 69.3984 103.549 65.0227C102.03 62.1916 99.2178 55.213 105.799 51.483C112.124 47.8758 116.381 42.6151 118.124 36.2413C121.151 25.1509 115.485 14.7694 114.824 13.6283C112.364 9.335 106.909 7.85377 102.568 10.2755C98.2356 12.7118 96.7026 18.213 99.0841 22.5766C100.573 25.2967 103.353 32.0427 96.855 35.7367C79.9126 45.3626 82.0987 63.7719 87.7063 73.7937Z" fill="#D33F0D"/>
</g>
</svg>
