<svg width="295" height="298" viewBox="0 0 295 298" fill="none" xmlns="http://www.w3.org/2000/svg">
<mask id="mask0" mask-type="alpha" maskUnits="userSpaceOnUse" x="0" y="0" width="295" height="298">
<rect width="295" height="298" fill="#C4C4C4"/>
</mask>
<g mask="url(#mask0)">
<path d="M107.764 52.8677C107.764 52.8677 133.305 28.5855 134.026 27.8999C143.719 18.6812 158.301 15.7606 176.179 19.463C203.708 25.1638 236.964 46.2588 265.151 75.8873C313.501 126.735 331.666 185.322 306.487 209.267C305.709 210.012 280.228 234.235 280.228 234.235C278.05 236.309 275.586 237.987 272.95 239.394C273.346 240.625 273.562 241.92 273.28 243.279L265.972 278.569C258.535 314.483 195.676 330.799 122.871 315.722C50.0597 300.64 -1.14414 260.707 6.2932 224.793C6.2932 224.793 21.2058 152.782 21.4541 151.583C26.9113 125.23 56.1807 109.146 100.412 107.789C93.5806 84.5254 95.4797 64.5591 107.764 52.8677ZM160.22 175.684C162.061 177.623 163.924 179.423 165.784 181.253C166.95 181.897 167.878 182.876 168.585 184.072C195.355 209.679 222.774 224.171 243.108 227.751C246.663 228.027 260.212 230.172 269.67 223.126L273.999 219.01C270.881 218.773 267.692 218.392 264.339 217.698C236.801 211.995 203.54 190.906 175.359 161.268C152.987 137.741 136.15 111.482 127.94 87.3059C124.567 77.3784 122.806 68.1766 122.606 59.9253L118.331 63.9816C102.356 79.179 115.625 128.791 160.22 175.684ZM160.17 197.223C153.426 200.925 148.868 206.606 147.464 213.387C147.454 213.436 147.417 213.466 147.405 213.525C147.386 213.616 143.553 227.961 143.553 227.961C166.782 232.553 190.72 234.218 211.039 232.912C194.458 224.922 176.977 212.928 160.17 197.223ZM128.582 224.585L132.449 210.274C135.48 195.637 122.776 181.579 104.63 176.83C76.6895 169.513 65.5033 197.15 65.374 197.495C81.0401 208.162 102.43 217.884 128.582 224.585ZM144.489 189.736C145.901 188.447 147.398 187.244 149.002 186.131C139.572 176.207 131.337 165.995 124.307 155.787C120.832 158.101 118.085 160.998 116.197 164.305C129.278 169.205 139.387 178.547 144.489 189.736ZM254.039 86.4584C227.932 58.9987 197.664 39.572 173.073 34.4796C164.194 32.6409 152.027 31.9344 144.586 39.0158C136.495 46.7191 135.71 62.5232 142.453 82.3807C149.966 104.49 165.602 128.763 186.471 150.711C212.58 178.161 242.848 197.591 267.445 202.684C276.324 204.523 288.485 205.239 295.927 198.154C311.908 182.958 298.633 133.345 254.039 86.4584ZM125.979 300.712C194.667 314.937 246.053 299.139 250.956 275.46L257.51 243.813C252.958 244.237 248.085 244.07 242.958 243.335C216.792 250.653 176.075 250.38 138.037 242.502C136.279 242.138 131.775 241.141 131.638 241.095C84.2441 230.146 46.8431 208.659 30.1853 185.024L21.3059 227.902C16.4022 251.581 57.2848 286.487 125.979 300.712ZM36.4675 154.688C34.4467 164.446 40.3173 176.121 52.6121 187.467C59.4543 169.945 79.1789 159.072 100.859 160.873C103.87 153.624 109.109 147.433 116.109 142.877C112.159 136.163 108.785 129.531 105.999 123.052C67.0623 123.185 40.5076 135.179 36.4675 154.688Z" fill="#D9CECA"/>
<path d="M267.487 193.595C267.016 193.579 266.559 193.532 266.111 193.439C262.556 192.703 259.927 189.5 260.019 185.733L261.543 124.806C261.655 120.576 265.166 117.234 269.404 117.338C273.621 117.434 276.98 120.962 276.866 125.199L275.342 186.125C275.236 190.356 271.718 193.701 267.487 193.595Z" fill="#D9CECA"/>
<path d="M229.552 170.193C229.088 170.182 228.625 170.131 228.183 170.039C224.628 169.303 221.988 166.102 222.084 162.332L222.88 130.761C222.983 126.526 226.507 123.186 230.735 123.292C234.944 123.373 238.309 126.922 238.203 131.153L237.407 162.724C237.304 166.956 233.787 170.3 229.552 170.193Z" fill="#D9CECA"/>
<path d="M203.103 142.376C202.632 142.364 202.176 142.31 201.729 142.218C198.173 141.481 195.54 138.281 195.639 134.515L197.271 69.3305C197.374 65.0953 200.895 61.7551 205.126 61.8611C209.345 61.9272 212.7 65.4745 212.595 69.7162L210.959 134.907C210.852 139.138 207.339 142.48 203.103 142.376Z" fill="#D9CECA"/>
<path d="M181.515 87.2692C181.051 87.2582 180.588 87.2033 180.147 87.112C176.589 86.375 173.946 83.1729 174.046 79.4141L174.431 64.4235C174.534 60.1916 178.055 56.8449 182.286 56.9542C186.513 57.0491 189.868 60.5793 189.759 64.8099L189.371 79.7999C189.265 84.0279 185.749 87.3792 181.515 87.2692Z" fill="#D9CECA"/>
<path d="M102.892 184.368L102.957 184.382C107.097 185.239 109.734 189.296 108.876 193.436C108.018 197.58 103.932 200.244 99.7819 199.384C95.635 198.526 92.9727 194.464 93.8308 190.32C94.6882 186.18 98.7446 183.51 102.892 184.368Z" fill="#D9CECA"/>
<path d="M60.4863 14.727C64.0374 12.4395 68.7826 13.4869 71.0687 17.0617C75.275 23.6241 79.2878 39.2835 64.434 51.5845C56.2597 58.3572 60.0179 67.1 60.8178 68.7175C62.7846 72.4681 61.3439 77.1045 57.5882 79.0634C55.952 79.9208 54.1572 80.1285 52.4841 79.782C50.3142 79.3327 48.3516 77.9481 47.2469 75.8279C43.4626 68.6099 40.1436 51.7889 54.6531 39.7677C62.1751 33.5449 59.2044 27.0883 58.1064 25.2319C55.8883 21.6747 56.9431 16.9924 60.4863 14.727Z" fill="#D9CECA"/>
<path d="M92.7906 4.42593C96.3496 2.13323 101.087 3.18583 103.376 6.76122C107.576 13.3223 111.588 28.9849 96.7344 41.2859C88.5667 48.06 92.3216 56.8022 93.128 58.421C95.0955 62.1683 93.6417 66.8021 89.8918 68.7656C88.2589 69.6236 86.4642 69.8313 84.7878 69.4842C82.6146 69.0341 80.6553 67.6503 79.5466 65.5326C75.7663 58.312 72.4538 41.4924 86.9568 29.4698C94.4722 23.2457 91.5041 16.7931 90.4126 14.938C88.1998 11.3716 89.2474 6.69125 92.7906 4.42593Z" fill="#D9CECA"/>
</g>
</svg>
