<svg width="397" height="315" viewBox="0 0 397 315" fill="none" xmlns="http://www.w3.org/2000/svg">
<path fill-rule="evenodd" clip-rule="evenodd" d="M22.2615 315H0.966797C7.36084 290.622 22.1565 268.608 42.8828 253.913C51.8452 247.736 58.5669 248.859 62.4878 251.105C67.5293 253.351 69.7698 257.843 70.8901 260.65C75.9314 273.565 75.9314 286.48 75.3713 298.833V313.433L77.0518 310.063C83.2131 297.148 93.2959 291.533 102.818 294.902C112.614 298.52 114.817 307.847 115.106 315H54.4824C54.1511 309.224 54.3987 303.412 54.646 297.71C55.2061 288.165 55.2061 279.181 52.9653 271.881C38.7185 282.477 27.865 297.987 22.2615 315ZM144.232 315C144.04 314.786 143.864 314.634 143.709 314.556C143.516 314.556 142.992 314.688 142.296 315H116.108L120.743 307.256C127.465 297.71 139.228 290.973 150.991 295.464C159.778 298.766 163.718 307.468 166.509 313.628L166.675 313.994L167.177 315H144.232ZM397 18.3817C395.778 17.246 394.435 16.2035 392.973 15.2714L374.488 4.0414C361.045 -3.81993 343.68 0.110738 335.838 13.0253L194.682 242.121C193.001 244.367 193.001 247.175 193.562 249.982V250.544L191.321 303.887C187.128 307.67 182.621 311.452 178.036 315H209.289C209.461 314.851 209.634 314.704 209.806 314.556C211.486 313.433 212.046 311.748 212.607 310.063L252.937 288.165C255.738 287.603 258.538 285.919 260.219 283.673L391.292 70.2987C394.093 70.8602 396.334 71.4218 396.894 72.5448C396.93 72.5927 396.965 72.6425 397 72.6923V18.3817ZM397 83.1835V123.147L382.891 146.102C380.65 149.472 377.289 151.156 373.928 151.156C371.688 151.156 370.007 150.595 368.327 149.472C363.285 146.664 362.165 140.488 364.966 135.434L397 83.1835ZM382.33 32.6776L363.846 21.4481C359.924 19.202 355.443 20.3251 353.203 23.6937L352.083 25.9398L383.451 45.0311L384.571 42.7851C386.812 39.4159 385.691 34.9237 382.33 32.6776ZM372.248 62.4384L340.879 43.3466L217.648 243.806L249.016 262.896L372.248 62.4384ZM213.727 265.704L212.607 286.48L231.091 276.373L213.727 265.704Z" fill="#D9CECA"/>
</svg>
